<mxfile host="Electron" modified="2024-06-19T09:28:16.369Z" agent="Mozilla/5.0 (Windows NT 10.0; Win64; x64) AppleWebKit/537.36 (KHTML, like Gecko) draw.io/24.5.3 Chrome/124.0.6367.207 Electron/30.0.6 Safari/537.36" etag="IrjvaeMnvcpQGjivTaKt" version="24.5.3" type="device">
  <diagram name="Page-1" id="AOf-o4B-3iCnlxBAphUO">
    <mxGraphModel dx="1290" dy="621" grid="1" gridSize="10" guides="0" tooltips="1" connect="1" arrows="1" fold="1" page="1" pageScale="1" pageWidth="1169" pageHeight="827" math="0" shadow="0">
      <root>
        <mxCell id="0" />
        <mxCell id="1" parent="0" />
        <mxCell id="87wVxwsKgg1wfdDSbdAy-3" value="user" style="whiteSpace=wrap;html=1;align=center;" parent="1" vertex="1">
          <mxGeometry x="150" y="120" width="100" height="40" as="geometry" />
        </mxCell>
        <mxCell id="87wVxwsKgg1wfdDSbdAy-5" style="edgeStyle=orthogonalEdgeStyle;rounded=0;orthogonalLoop=1;jettySize=auto;html=1;entryX=0;entryY=0.5;entryDx=0;entryDy=0;" parent="1" source="87wVxwsKgg1wfdDSbdAy-4" target="87wVxwsKgg1wfdDSbdAy-3" edge="1">
          <mxGeometry relative="1" as="geometry">
            <mxPoint x="160" y="140" as="targetPoint" />
            <Array as="points">
              <mxPoint x="100" y="30" />
              <mxPoint x="100" y="140" />
            </Array>
          </mxGeometry>
        </mxCell>
        <mxCell id="87wVxwsKgg1wfdDSbdAy-4" value="user_id" style="ellipse;whiteSpace=wrap;html=1;align=center;fontStyle=4;" parent="1" vertex="1">
          <mxGeometry x="10" y="10" width="80" height="40" as="geometry" />
        </mxCell>
        <mxCell id="87wVxwsKgg1wfdDSbdAy-14" style="edgeStyle=orthogonalEdgeStyle;rounded=0;orthogonalLoop=1;jettySize=auto;html=1;entryX=0;entryY=0.5;entryDx=0;entryDy=0;" parent="1" target="87wVxwsKgg1wfdDSbdAy-3" edge="1">
          <mxGeometry relative="1" as="geometry">
            <mxPoint x="140" y="140" as="targetPoint" />
            <Array as="points">
              <mxPoint x="100" y="130" />
              <mxPoint x="100" y="140" />
            </Array>
            <mxPoint x="80" y="130" as="sourcePoint" />
          </mxGeometry>
        </mxCell>
        <mxCell id="87wVxwsKgg1wfdDSbdAy-13" value="first name" style="ellipse;whiteSpace=wrap;html=1;align=center;" parent="1" vertex="1">
          <mxGeometry x="10" y="60" width="80" height="40" as="geometry" />
        </mxCell>
        <mxCell id="87wVxwsKgg1wfdDSbdAy-15" value="last name" style="ellipse;whiteSpace=wrap;html=1;align=center;" parent="1" vertex="1">
          <mxGeometry x="10" y="110" width="80" height="40" as="geometry" />
        </mxCell>
        <mxCell id="87wVxwsKgg1wfdDSbdAy-18" style="edgeStyle=orthogonalEdgeStyle;rounded=0;orthogonalLoop=1;jettySize=auto;html=1;entryX=0;entryY=0.5;entryDx=0;entryDy=0;" parent="1" source="87wVxwsKgg1wfdDSbdAy-17" target="87wVxwsKgg1wfdDSbdAy-3" edge="1">
          <mxGeometry relative="1" as="geometry">
            <Array as="points">
              <mxPoint x="100" y="180" />
              <mxPoint x="100" y="140" />
            </Array>
          </mxGeometry>
        </mxCell>
        <mxCell id="87wVxwsKgg1wfdDSbdAy-17" value="email" style="ellipse;whiteSpace=wrap;html=1;align=center;" parent="1" vertex="1">
          <mxGeometry x="10" y="160" width="80" height="40" as="geometry" />
        </mxCell>
        <mxCell id="87wVxwsKgg1wfdDSbdAy-27" style="edgeStyle=orthogonalEdgeStyle;rounded=0;orthogonalLoop=1;jettySize=auto;html=1;entryX=0;entryY=0.5;entryDx=0;entryDy=0;" parent="1" source="87wVxwsKgg1wfdDSbdAy-19" target="87wVxwsKgg1wfdDSbdAy-3" edge="1">
          <mxGeometry relative="1" as="geometry">
            <Array as="points">
              <mxPoint x="100" y="230" />
              <mxPoint x="100" y="140" />
            </Array>
          </mxGeometry>
        </mxCell>
        <mxCell id="87wVxwsKgg1wfdDSbdAy-19" value="password" style="ellipse;whiteSpace=wrap;html=1;align=center;" parent="1" vertex="1">
          <mxGeometry x="10" y="210" width="80" height="40" as="geometry" />
        </mxCell>
        <mxCell id="87wVxwsKgg1wfdDSbdAy-34" style="edgeStyle=orthogonalEdgeStyle;rounded=0;orthogonalLoop=1;jettySize=auto;html=1;entryX=0;entryY=0.5;entryDx=0;entryDy=0;" parent="1" source="87wVxwsKgg1wfdDSbdAy-21" target="87wVxwsKgg1wfdDSbdAy-3" edge="1">
          <mxGeometry relative="1" as="geometry">
            <Array as="points">
              <mxPoint x="100" y="190" />
              <mxPoint x="100" y="140" />
            </Array>
          </mxGeometry>
        </mxCell>
        <mxCell id="87wVxwsKgg1wfdDSbdAy-21" value="phone&lt;br&gt;number" style="ellipse;whiteSpace=wrap;html=1;align=center;" parent="1" vertex="1">
          <mxGeometry x="110" y="170" width="80" height="40" as="geometry" />
        </mxCell>
        <mxCell id="87wVxwsKgg1wfdDSbdAy-32" style="edgeStyle=orthogonalEdgeStyle;rounded=0;orthogonalLoop=1;jettySize=auto;html=1;entryX=0;entryY=0.5;entryDx=0;entryDy=0;" parent="1" source="87wVxwsKgg1wfdDSbdAy-22" target="87wVxwsKgg1wfdDSbdAy-3" edge="1">
          <mxGeometry relative="1" as="geometry">
            <Array as="points">
              <mxPoint x="100" y="240" />
              <mxPoint x="100" y="140" />
            </Array>
          </mxGeometry>
        </mxCell>
        <mxCell id="87wVxwsKgg1wfdDSbdAy-22" value="location" style="ellipse;whiteSpace=wrap;html=1;align=center;" parent="1" vertex="1">
          <mxGeometry x="110" y="220" width="80" height="40" as="geometry" />
        </mxCell>
        <mxCell id="87wVxwsKgg1wfdDSbdAy-31" style="edgeStyle=orthogonalEdgeStyle;rounded=0;orthogonalLoop=1;jettySize=auto;html=1;entryX=0;entryY=0.5;entryDx=0;entryDy=0;exitX=0.5;exitY=0;exitDx=0;exitDy=0;" parent="1" source="87wVxwsKgg1wfdDSbdAy-23" target="87wVxwsKgg1wfdDSbdAy-3" edge="1">
          <mxGeometry relative="1" as="geometry">
            <Array as="points">
              <mxPoint x="240" y="60" />
              <mxPoint x="100" y="60" />
              <mxPoint x="100" y="140" />
            </Array>
          </mxGeometry>
        </mxCell>
        <mxCell id="87wVxwsKgg1wfdDSbdAy-23" value="signup_date" style="ellipse;whiteSpace=wrap;html=1;align=center;" parent="1" vertex="1">
          <mxGeometry x="200" y="70" width="80" height="40" as="geometry" />
        </mxCell>
        <mxCell id="87wVxwsKgg1wfdDSbdAy-29" style="edgeStyle=orthogonalEdgeStyle;rounded=0;orthogonalLoop=1;jettySize=auto;html=1;entryX=0;entryY=0.5;entryDx=0;entryDy=0;" parent="1" source="87wVxwsKgg1wfdDSbdAy-24" target="87wVxwsKgg1wfdDSbdAy-3" edge="1">
          <mxGeometry relative="1" as="geometry">
            <Array as="points">
              <mxPoint x="150" y="60" />
              <mxPoint x="100" y="60" />
              <mxPoint x="100" y="140" />
            </Array>
          </mxGeometry>
        </mxCell>
        <mxCell id="87wVxwsKgg1wfdDSbdAy-24" value="balance" style="ellipse;whiteSpace=wrap;html=1;align=center;" parent="1" vertex="1">
          <mxGeometry x="110" y="70" width="80" height="40" as="geometry" />
        </mxCell>
        <mxCell id="87wVxwsKgg1wfdDSbdAy-30" style="edgeStyle=orthogonalEdgeStyle;rounded=0;orthogonalLoop=1;jettySize=auto;html=1;entryX=0;entryY=0.5;entryDx=0;entryDy=0;exitX=0.5;exitY=1;exitDx=0;exitDy=0;" parent="1" source="87wVxwsKgg1wfdDSbdAy-25" target="87wVxwsKgg1wfdDSbdAy-3" edge="1">
          <mxGeometry relative="1" as="geometry">
            <Array as="points">
              <mxPoint x="240" y="60" />
              <mxPoint x="100" y="60" />
              <mxPoint x="100" y="140" />
            </Array>
          </mxGeometry>
        </mxCell>
        <mxCell id="87wVxwsKgg1wfdDSbdAy-25" value="signin_date" style="ellipse;whiteSpace=wrap;html=1;align=center;" parent="1" vertex="1">
          <mxGeometry x="200" y="10" width="80" height="40" as="geometry" />
        </mxCell>
        <mxCell id="87wVxwsKgg1wfdDSbdAy-28" style="edgeStyle=orthogonalEdgeStyle;rounded=0;orthogonalLoop=1;jettySize=auto;html=1;entryX=0;entryY=0.5;entryDx=0;entryDy=0;" parent="1" source="87wVxwsKgg1wfdDSbdAy-26" target="87wVxwsKgg1wfdDSbdAy-3" edge="1">
          <mxGeometry relative="1" as="geometry">
            <Array as="points">
              <mxPoint x="150" y="60" />
              <mxPoint x="100" y="60" />
              <mxPoint x="100" y="140" />
            </Array>
          </mxGeometry>
        </mxCell>
        <mxCell id="87wVxwsKgg1wfdDSbdAy-26" value="is_active" style="ellipse;whiteSpace=wrap;html=1;align=center;" parent="1" vertex="1">
          <mxGeometry x="110" y="10" width="80" height="40" as="geometry" />
        </mxCell>
        <mxCell id="O7f6ndupmdNj3DA_yaev-14" style="edgeStyle=orthogonalEdgeStyle;rounded=0;orthogonalLoop=1;jettySize=auto;html=1;entryX=0.5;entryY=1;entryDx=0;entryDy=0;endArrow=none;endFill=0;exitX=0.75;exitY=0;exitDx=0;exitDy=0;" parent="1" source="87wVxwsKgg1wfdDSbdAy-37" target="O7f6ndupmdNj3DA_yaev-12" edge="1">
          <mxGeometry relative="1" as="geometry">
            <Array as="points">
              <mxPoint x="225" y="290" />
              <mxPoint x="255" y="290" />
            </Array>
          </mxGeometry>
        </mxCell>
        <mxCell id="O7f6ndupmdNj3DA_yaev-17" style="edgeStyle=orthogonalEdgeStyle;rounded=0;orthogonalLoop=1;jettySize=auto;html=1;entryX=1;entryY=0.5;entryDx=0;entryDy=0;endArrow=none;endFill=0;exitX=0.75;exitY=1;exitDx=0;exitDy=0;" parent="1" source="87wVxwsKgg1wfdDSbdAy-37" target="87wVxwsKgg1wfdDSbdAy-114" edge="1">
          <mxGeometry relative="1" as="geometry">
            <Array as="points">
              <mxPoint x="225" y="500" />
              <mxPoint x="330" y="500" />
              <mxPoint x="330" y="645" />
            </Array>
          </mxGeometry>
        </mxCell>
        <mxCell id="O7f6ndupmdNj3DA_yaev-18" style="edgeStyle=orthogonalEdgeStyle;rounded=0;orthogonalLoop=1;jettySize=auto;html=1;entryX=0;entryY=0.5;entryDx=0;entryDy=0;endArrow=none;endFill=0;exitX=0.75;exitY=1;exitDx=0;exitDy=0;" parent="1" source="87wVxwsKgg1wfdDSbdAy-37" target="87wVxwsKgg1wfdDSbdAy-157" edge="1">
          <mxGeometry relative="1" as="geometry">
            <Array as="points">
              <mxPoint x="225" y="500" />
              <mxPoint x="330" y="500" />
              <mxPoint x="330" y="705" />
            </Array>
          </mxGeometry>
        </mxCell>
        <mxCell id="O7f6ndupmdNj3DA_yaev-26" style="edgeStyle=orthogonalEdgeStyle;rounded=0;orthogonalLoop=1;jettySize=auto;html=1;endArrow=none;endFill=0;exitX=0.75;exitY=1;exitDx=0;exitDy=0;entryX=0;entryY=0.5;entryDx=0;entryDy=0;" parent="1" source="87wVxwsKgg1wfdDSbdAy-37" target="O7f6ndupmdNj3DA_yaev-25" edge="1">
          <mxGeometry relative="1" as="geometry">
            <mxPoint x="370" y="500" as="targetPoint" />
            <Array as="points">
              <mxPoint x="225" y="500" />
              <mxPoint x="330" y="500" />
              <mxPoint x="330" y="525" />
            </Array>
          </mxGeometry>
        </mxCell>
        <mxCell id="87wVxwsKgg1wfdDSbdAy-37" value="technician" style="whiteSpace=wrap;html=1;align=center;" parent="1" vertex="1">
          <mxGeometry x="150" y="320" width="100" height="40" as="geometry" />
        </mxCell>
        <mxCell id="87wVxwsKgg1wfdDSbdAy-38" style="edgeStyle=orthogonalEdgeStyle;rounded=0;orthogonalLoop=1;jettySize=auto;html=1;entryX=0;entryY=0.5;entryDx=0;entryDy=0;" parent="1" source="87wVxwsKgg1wfdDSbdAy-63" target="87wVxwsKgg1wfdDSbdAy-37" edge="1">
          <mxGeometry relative="1" as="geometry">
            <mxPoint x="170" y="640" as="targetPoint" />
            <Array as="points">
              <mxPoint x="100" y="280" />
              <mxPoint x="100" y="340" />
            </Array>
          </mxGeometry>
        </mxCell>
        <mxCell id="87wVxwsKgg1wfdDSbdAy-39" style="edgeStyle=orthogonalEdgeStyle;rounded=0;orthogonalLoop=1;jettySize=auto;html=1;entryX=0;entryY=0.5;entryDx=0;entryDy=0;" parent="1" source="87wVxwsKgg1wfdDSbdAy-62" target="87wVxwsKgg1wfdDSbdAy-37" edge="1">
          <mxGeometry relative="1" as="geometry">
            <Array as="points">
              <mxPoint x="100" y="430" />
              <mxPoint x="100" y="340" />
            </Array>
          </mxGeometry>
        </mxCell>
        <mxCell id="87wVxwsKgg1wfdDSbdAy-46" style="edgeStyle=orthogonalEdgeStyle;rounded=0;orthogonalLoop=1;jettySize=auto;html=1;entryX=0;entryY=0.5;entryDx=0;entryDy=0;exitX=0;exitY=0.5;exitDx=0;exitDy=0;" parent="1" source="vmQZ8xtDYOCq7PcfICJz-22" target="87wVxwsKgg1wfdDSbdAy-37" edge="1">
          <mxGeometry relative="1" as="geometry">
            <mxPoint x="140" y="530.0000000000001" as="sourcePoint" />
            <Array as="points">
              <mxPoint x="100" y="290" />
              <mxPoint x="100" y="340" />
            </Array>
          </mxGeometry>
        </mxCell>
        <mxCell id="87wVxwsKgg1wfdDSbdAy-52" style="edgeStyle=orthogonalEdgeStyle;rounded=0;orthogonalLoop=1;jettySize=auto;html=1;entryX=0;entryY=0.5;entryDx=0;entryDy=0;" parent="1" source="87wVxwsKgg1wfdDSbdAy-53" target="87wVxwsKgg1wfdDSbdAy-37" edge="1">
          <mxGeometry relative="1" as="geometry">
            <Array as="points">
              <mxPoint x="100" y="480" />
              <mxPoint x="100" y="340" />
            </Array>
          </mxGeometry>
        </mxCell>
        <mxCell id="87wVxwsKgg1wfdDSbdAy-53" value="verifcation&lt;br&gt;level" style="ellipse;whiteSpace=wrap;html=1;align=center;" parent="1" vertex="1">
          <mxGeometry x="10" y="460" width="80" height="40" as="geometry" />
        </mxCell>
        <mxCell id="87wVxwsKgg1wfdDSbdAy-56" style="edgeStyle=orthogonalEdgeStyle;rounded=0;orthogonalLoop=1;jettySize=auto;html=1;entryX=0;entryY=0.5;entryDx=0;entryDy=0;" parent="1" source="87wVxwsKgg1wfdDSbdAy-57" target="87wVxwsKgg1wfdDSbdAy-37" edge="1">
          <mxGeometry relative="1" as="geometry">
            <Array as="points">
              <mxPoint x="100" y="490" />
              <mxPoint x="100" y="340" />
            </Array>
          </mxGeometry>
        </mxCell>
        <mxCell id="87wVxwsKgg1wfdDSbdAy-57" value="status" style="ellipse;whiteSpace=wrap;html=1;align=center;" parent="1" vertex="1">
          <mxGeometry x="110" y="470" width="80" height="40" as="geometry" />
        </mxCell>
        <mxCell id="87wVxwsKgg1wfdDSbdAy-62" value="user_name" style="ellipse;whiteSpace=wrap;html=1;align=center;" parent="1" vertex="1">
          <mxGeometry x="10" y="410" width="80" height="40" as="geometry" />
        </mxCell>
        <mxCell id="87wVxwsKgg1wfdDSbdAy-63" value="tec_id" style="ellipse;whiteSpace=wrap;html=1;align=center;fontStyle=4;" parent="1" vertex="1">
          <mxGeometry x="10" y="260" width="80" height="40" as="geometry" />
        </mxCell>
        <mxCell id="87wVxwsKgg1wfdDSbdAy-74" style="edgeStyle=orthogonalEdgeStyle;rounded=0;orthogonalLoop=1;jettySize=auto;html=1;entryX=0;entryY=0.5;entryDx=0;entryDy=0;exitX=0;exitY=0.5;exitDx=0;exitDy=0;" parent="1" source="87wVxwsKgg1wfdDSbdAy-65" target="87wVxwsKgg1wfdDSbdAy-37" edge="1">
          <mxGeometry relative="1" as="geometry">
            <Array as="points">
              <mxPoint x="100" y="440" />
              <mxPoint x="100" y="340" />
            </Array>
          </mxGeometry>
        </mxCell>
        <mxCell id="87wVxwsKgg1wfdDSbdAy-65" value="SSN" style="ellipse;whiteSpace=wrap;html=1;align=center;" parent="1" vertex="1">
          <mxGeometry x="110" y="420" width="80" height="40" as="geometry" />
        </mxCell>
        <mxCell id="we7u0cD3R3zxt0RhFut2-151" style="edgeStyle=orthogonalEdgeStyle;rounded=0;orthogonalLoop=1;jettySize=auto;html=1;exitX=0;exitY=0.5;exitDx=0;exitDy=0;entryX=0;entryY=0.5;entryDx=0;entryDy=0;" parent="1" source="87wVxwsKgg1wfdDSbdAy-69" target="87wVxwsKgg1wfdDSbdAy-37" edge="1">
          <mxGeometry relative="1" as="geometry">
            <Array as="points">
              <mxPoint x="100" y="390" />
              <mxPoint x="100" y="340" />
            </Array>
            <mxPoint x="110" y="450" as="sourcePoint" />
            <mxPoint x="160" y="690" as="targetPoint" />
          </mxGeometry>
        </mxCell>
        <mxCell id="87wVxwsKgg1wfdDSbdAy-69" value="approved_by" style="ellipse;whiteSpace=wrap;html=1;align=center;" parent="1" vertex="1">
          <mxGeometry x="110" y="370" width="80" height="40" as="geometry" />
        </mxCell>
        <mxCell id="87wVxwsKgg1wfdDSbdAy-79" style="edgeStyle=orthogonalEdgeStyle;rounded=0;orthogonalLoop=1;jettySize=auto;html=1;entryX=0;entryY=0.5;entryDx=0;entryDy=0;" parent="1" source="87wVxwsKgg1wfdDSbdAy-77" target="87wVxwsKgg1wfdDSbdAy-37" edge="1">
          <mxGeometry relative="1" as="geometry">
            <Array as="points">
              <mxPoint x="100" y="330" />
              <mxPoint x="100" y="340" />
            </Array>
          </mxGeometry>
        </mxCell>
        <mxCell id="87wVxwsKgg1wfdDSbdAy-77" value="birth_date" style="ellipse;whiteSpace=wrap;html=1;align=center;" parent="1" vertex="1">
          <mxGeometry x="10" y="310" width="80" height="40" as="geometry" />
        </mxCell>
        <mxCell id="87wVxwsKgg1wfdDSbdAy-126" style="edgeStyle=orthogonalEdgeStyle;rounded=0;orthogonalLoop=1;jettySize=auto;html=1;entryX=0;entryY=0.5;entryDx=0;entryDy=0;endArrow=none;endFill=0;" parent="1" source="87wVxwsKgg1wfdDSbdAy-83" target="87wVxwsKgg1wfdDSbdAy-121" edge="1">
          <mxGeometry relative="1" as="geometry">
            <Array as="points">
              <mxPoint x="740" y="210" />
              <mxPoint x="740" y="235" />
            </Array>
          </mxGeometry>
        </mxCell>
        <mxCell id="87wVxwsKgg1wfdDSbdAy-83" value="order" style="shape=ext;margin=3;double=1;whiteSpace=wrap;html=1;align=center;" parent="1" vertex="1">
          <mxGeometry x="620" y="190" width="100" height="40" as="geometry" />
        </mxCell>
        <mxCell id="87wVxwsKgg1wfdDSbdAy-88" style="edgeStyle=orthogonalEdgeStyle;rounded=0;orthogonalLoop=1;jettySize=auto;html=1;entryX=0;entryY=0.5;entryDx=0;entryDy=0;endArrow=none;endFill=0;exitX=1;exitY=0.5;exitDx=0;exitDy=0;" parent="1" source="87wVxwsKgg1wfdDSbdAy-84" target="87wVxwsKgg1wfdDSbdAy-83" edge="1">
          <mxGeometry relative="1" as="geometry">
            <Array as="points">
              <mxPoint x="380" y="165" />
              <mxPoint x="380" y="210" />
            </Array>
          </mxGeometry>
        </mxCell>
        <mxCell id="vmQZ8xtDYOCq7PcfICJz-81" style="edgeStyle=orthogonalEdgeStyle;rounded=0;orthogonalLoop=1;jettySize=auto;html=1;entryX=0.5;entryY=0;entryDx=0;entryDy=0;endArrow=none;endFill=0;exitX=1;exitY=0.5;exitDx=0;exitDy=0;" parent="1" source="87wVxwsKgg1wfdDSbdAy-84" target="vmQZ8xtDYOCq7PcfICJz-93" edge="1">
          <mxGeometry relative="1" as="geometry">
            <Array as="points">
              <mxPoint x="380" y="165" />
              <mxPoint x="380" y="210" />
              <mxPoint x="350" y="210" />
            </Array>
          </mxGeometry>
        </mxCell>
        <mxCell id="vmQZ8xtDYOCq7PcfICJz-127" style="edgeStyle=orthogonalEdgeStyle;rounded=0;orthogonalLoop=1;jettySize=auto;html=1;entryX=0;entryY=0.5;entryDx=0;entryDy=0;endArrow=none;endFill=0;exitX=1;exitY=0.5;exitDx=0;exitDy=0;" parent="1" source="87wVxwsKgg1wfdDSbdAy-84" target="vmQZ8xtDYOCq7PcfICJz-74" edge="1">
          <mxGeometry relative="1" as="geometry">
            <Array as="points">
              <mxPoint x="380" y="165" />
              <mxPoint x="380" y="150" />
            </Array>
          </mxGeometry>
        </mxCell>
        <mxCell id="O7f6ndupmdNj3DA_yaev-55" style="edgeStyle=orthogonalEdgeStyle;rounded=0;orthogonalLoop=1;jettySize=auto;html=1;endArrow=none;endFill=0;" parent="1" source="87wVxwsKgg1wfdDSbdAy-84" target="O7f6ndupmdNj3DA_yaev-48" edge="1">
          <mxGeometry relative="1" as="geometry">
            <Array as="points">
              <mxPoint x="380" y="165" />
              <mxPoint x="380" y="210" />
              <mxPoint x="480" y="210" />
            </Array>
          </mxGeometry>
        </mxCell>
        <mxCell id="87wVxwsKgg1wfdDSbdAy-84" value="has" style="shape=rhombus;perimeter=rhombusPerimeter;whiteSpace=wrap;html=1;align=center;strokeColor=default;gradientColor=none;double=1;" parent="1" vertex="1">
          <mxGeometry x="300" y="130" width="70" height="70" as="geometry" />
        </mxCell>
        <mxCell id="87wVxwsKgg1wfdDSbdAy-87" value="" style="edgeStyle=orthogonalEdgeStyle;rounded=0;orthogonalLoop=1;jettySize=auto;html=1;entryX=0;entryY=0.5;entryDx=0;entryDy=0;endArrow=none;endFill=0;" parent="1" source="87wVxwsKgg1wfdDSbdAy-3" target="87wVxwsKgg1wfdDSbdAy-84" edge="1">
          <mxGeometry relative="1" as="geometry">
            <mxPoint x="400" y="200" as="targetPoint" />
            <mxPoint x="250" y="140" as="sourcePoint" />
            <Array as="points">
              <mxPoint x="270" y="140" />
              <mxPoint x="270" y="165" />
            </Array>
          </mxGeometry>
        </mxCell>
        <mxCell id="87wVxwsKgg1wfdDSbdAy-86" value="1" style="text;html=1;align=center;verticalAlign=middle;resizable=0;points=[];autosize=1;strokeColor=none;fillColor=none;" parent="1" vertex="1">
          <mxGeometry x="250" y="110" width="30" height="30" as="geometry" />
        </mxCell>
        <mxCell id="87wVxwsKgg1wfdDSbdAy-89" value="M" style="text;html=1;align=center;verticalAlign=middle;resizable=0;points=[];autosize=1;strokeColor=none;fillColor=none;" parent="1" vertex="1">
          <mxGeometry x="590" y="180" width="30" height="30" as="geometry" />
        </mxCell>
        <mxCell id="87wVxwsKgg1wfdDSbdAy-91" style="edgeStyle=orthogonalEdgeStyle;rounded=0;orthogonalLoop=1;jettySize=auto;html=1;entryX=0.5;entryY=0;entryDx=0;entryDy=0;" parent="1" source="87wVxwsKgg1wfdDSbdAy-90" target="87wVxwsKgg1wfdDSbdAy-83" edge="1">
          <mxGeometry relative="1" as="geometry">
            <Array as="points">
              <mxPoint x="670" y="130" />
            </Array>
          </mxGeometry>
        </mxCell>
        <mxCell id="87wVxwsKgg1wfdDSbdAy-90" value="se_id" style="ellipse;whiteSpace=wrap;html=1;align=center;" parent="1" vertex="1">
          <mxGeometry x="580" y="110" width="80" height="40" as="geometry" />
        </mxCell>
        <mxCell id="87wVxwsKgg1wfdDSbdAy-93" style="edgeStyle=orthogonalEdgeStyle;rounded=0;orthogonalLoop=1;jettySize=auto;html=1;entryX=0.5;entryY=0;entryDx=0;entryDy=0;" parent="1" source="87wVxwsKgg1wfdDSbdAy-92" target="87wVxwsKgg1wfdDSbdAy-83" edge="1">
          <mxGeometry relative="1" as="geometry">
            <mxPoint x="460" y="190" as="targetPoint" />
            <Array as="points">
              <mxPoint x="670" y="80" />
            </Array>
          </mxGeometry>
        </mxCell>
        <mxCell id="87wVxwsKgg1wfdDSbdAy-92" value="user_id" style="ellipse;whiteSpace=wrap;html=1;align=center;" parent="1" vertex="1">
          <mxGeometry x="580" y="60" width="80" height="40" as="geometry" />
        </mxCell>
        <mxCell id="87wVxwsKgg1wfdDSbdAy-95" style="edgeStyle=orthogonalEdgeStyle;rounded=0;orthogonalLoop=1;jettySize=auto;html=1;exitX=1;exitY=0.5;exitDx=0;exitDy=0;entryX=0.5;entryY=0;entryDx=0;entryDy=0;" parent="1" source="87wVxwsKgg1wfdDSbdAy-104" target="87wVxwsKgg1wfdDSbdAy-83" edge="1">
          <mxGeometry relative="1" as="geometry">
            <mxPoint x="460" y="30" as="sourcePoint" />
            <Array as="points">
              <mxPoint x="670" y="30" />
            </Array>
          </mxGeometry>
        </mxCell>
        <mxCell id="87wVxwsKgg1wfdDSbdAy-99" style="edgeStyle=orthogonalEdgeStyle;rounded=0;orthogonalLoop=1;jettySize=auto;html=1;entryX=0.5;entryY=0;entryDx=0;entryDy=0;" parent="1" source="87wVxwsKgg1wfdDSbdAy-96" target="87wVxwsKgg1wfdDSbdAy-83" edge="1">
          <mxGeometry relative="1" as="geometry">
            <mxPoint x="460" y="190" as="targetPoint" />
            <Array as="points">
              <mxPoint x="670" y="30" />
            </Array>
          </mxGeometry>
        </mxCell>
        <mxCell id="87wVxwsKgg1wfdDSbdAy-96" value="date" style="ellipse;whiteSpace=wrap;html=1;align=center;" parent="1" vertex="1">
          <mxGeometry x="680" y="10" width="80" height="40" as="geometry" />
        </mxCell>
        <mxCell id="87wVxwsKgg1wfdDSbdAy-100" style="edgeStyle=orthogonalEdgeStyle;rounded=0;orthogonalLoop=1;jettySize=auto;html=1;exitX=0;exitY=0.5;exitDx=0;exitDy=0;entryX=0.5;entryY=0;entryDx=0;entryDy=0;" parent="1" source="87wVxwsKgg1wfdDSbdAy-97" target="87wVxwsKgg1wfdDSbdAy-83" edge="1">
          <mxGeometry relative="1" as="geometry">
            <mxPoint x="460" y="190" as="targetPoint" />
            <Array as="points">
              <mxPoint x="670" y="80" />
            </Array>
          </mxGeometry>
        </mxCell>
        <mxCell id="87wVxwsKgg1wfdDSbdAy-97" value="location" style="ellipse;whiteSpace=wrap;html=1;align=center;" parent="1" vertex="1">
          <mxGeometry x="680" y="60" width="80" height="40" as="geometry" />
        </mxCell>
        <mxCell id="87wVxwsKgg1wfdDSbdAy-101" style="edgeStyle=orthogonalEdgeStyle;rounded=0;orthogonalLoop=1;jettySize=auto;html=1;entryX=0.5;entryY=0;entryDx=0;entryDy=0;" parent="1" source="87wVxwsKgg1wfdDSbdAy-98" target="87wVxwsKgg1wfdDSbdAy-83" edge="1">
          <mxGeometry relative="1" as="geometry">
            <mxPoint x="460" y="190" as="targetPoint" />
            <Array as="points">
              <mxPoint x="670" y="130" />
            </Array>
          </mxGeometry>
        </mxCell>
        <mxCell id="87wVxwsKgg1wfdDSbdAy-98" value="description" style="ellipse;whiteSpace=wrap;html=1;align=center;" parent="1" vertex="1">
          <mxGeometry x="680" y="110" width="80" height="40" as="geometry" />
        </mxCell>
        <mxCell id="87wVxwsKgg1wfdDSbdAy-104" value="ord_id" style="ellipse;whiteSpace=wrap;html=1;align=center;fontStyle=4;" parent="1" vertex="1">
          <mxGeometry x="580" y="10" width="80" height="40" as="geometry" />
        </mxCell>
        <mxCell id="87wVxwsKgg1wfdDSbdAy-110" style="edgeStyle=orthogonalEdgeStyle;rounded=0;orthogonalLoop=1;jettySize=auto;html=1;entryX=0.5;entryY=0;entryDx=0;entryDy=0;" parent="1" source="87wVxwsKgg1wfdDSbdAy-105" target="87wVxwsKgg1wfdDSbdAy-83" edge="1">
          <mxGeometry relative="1" as="geometry">
            <mxPoint x="460" y="190" as="targetPoint" />
            <Array as="points">
              <mxPoint x="770" y="130" />
              <mxPoint x="770" y="160" />
              <mxPoint x="670" y="160" />
            </Array>
          </mxGeometry>
        </mxCell>
        <mxCell id="87wVxwsKgg1wfdDSbdAy-105" value="ch res id" style="ellipse;whiteSpace=wrap;html=1;align=center;" parent="1" vertex="1">
          <mxGeometry x="780" y="110" width="80" height="40" as="geometry" />
        </mxCell>
        <mxCell id="87wVxwsKgg1wfdDSbdAy-108" style="edgeStyle=orthogonalEdgeStyle;rounded=0;orthogonalLoop=1;jettySize=auto;html=1;entryX=0.5;entryY=0;entryDx=0;entryDy=0;" parent="1" source="87wVxwsKgg1wfdDSbdAy-107" target="87wVxwsKgg1wfdDSbdAy-83" edge="1">
          <mxGeometry relative="1" as="geometry">
            <mxPoint x="460" y="190" as="targetPoint" />
            <Array as="points">
              <mxPoint x="770" y="30" />
              <mxPoint x="770" y="160" />
              <mxPoint x="670" y="160" />
            </Array>
          </mxGeometry>
        </mxCell>
        <mxCell id="87wVxwsKgg1wfdDSbdAy-107" value="order_state" style="ellipse;whiteSpace=wrap;html=1;align=center;" parent="1" vertex="1">
          <mxGeometry x="780" y="10" width="80" height="40" as="geometry" />
        </mxCell>
        <mxCell id="87wVxwsKgg1wfdDSbdAy-144" style="edgeStyle=orthogonalEdgeStyle;rounded=0;orthogonalLoop=1;jettySize=auto;html=1;entryX=0.75;entryY=0;entryDx=0;entryDy=0;endArrow=none;endFill=0;exitX=0;exitY=0.5;exitDx=0;exitDy=0;" parent="1" source="87wVxwsKgg1wfdDSbdAy-114" target="87wVxwsKgg1wfdDSbdAy-146" edge="1">
          <mxGeometry relative="1" as="geometry">
            <mxPoint x="530" y="600" as="targetPoint" />
            <Array as="points">
              <mxPoint x="225" y="645" />
            </Array>
          </mxGeometry>
        </mxCell>
        <mxCell id="87wVxwsKgg1wfdDSbdAy-114" value="aproved by" style="shape=rhombus;perimeter=rhombusPerimeter;whiteSpace=wrap;html=1;align=center;" parent="1" vertex="1">
          <mxGeometry x="240" y="610" width="70" height="70" as="geometry" />
        </mxCell>
        <mxCell id="87wVxwsKgg1wfdDSbdAy-119" value="response" style="shape=ext;margin=3;double=1;whiteSpace=wrap;html=1;align=center;" parent="1" vertex="1">
          <mxGeometry x="830" y="170" width="100" height="40" as="geometry" />
        </mxCell>
        <mxCell id="vmQZ8xtDYOCq7PcfICJz-19" style="edgeStyle=orthogonalEdgeStyle;rounded=0;orthogonalLoop=1;jettySize=auto;html=1;entryX=0.5;entryY=0;entryDx=0;entryDy=0;exitX=1;exitY=0.5;exitDx=0;exitDy=0;endArrow=none;endFill=0;" parent="1" source="87wVxwsKgg1wfdDSbdAy-121" target="vmQZ8xtDYOCq7PcfICJz-10" edge="1">
          <mxGeometry relative="1" as="geometry">
            <Array as="points">
              <mxPoint x="830" y="235" />
            </Array>
          </mxGeometry>
        </mxCell>
        <mxCell id="O7f6ndupmdNj3DA_yaev-32" style="edgeStyle=orthogonalEdgeStyle;rounded=0;orthogonalLoop=1;jettySize=auto;html=1;entryX=0.5;entryY=0;entryDx=0;entryDy=0;exitX=0.5;exitY=1;exitDx=0;exitDy=0;endArrow=none;endFill=0;" parent="1" source="87wVxwsKgg1wfdDSbdAy-121" target="we7u0cD3R3zxt0RhFut2-80" edge="1">
          <mxGeometry relative="1" as="geometry">
            <Array as="points">
              <mxPoint x="785" y="290" />
              <mxPoint x="760" y="290" />
            </Array>
          </mxGeometry>
        </mxCell>
        <mxCell id="87wVxwsKgg1wfdDSbdAy-121" value="has" style="shape=rhombus;perimeter=rhombusPerimeter;whiteSpace=wrap;html=1;align=center;double=1;" parent="1" vertex="1">
          <mxGeometry x="750" y="200" width="70" height="70" as="geometry" />
        </mxCell>
        <mxCell id="87wVxwsKgg1wfdDSbdAy-128" style="edgeStyle=orthogonalEdgeStyle;rounded=0;orthogonalLoop=1;jettySize=auto;html=1;entryX=0.25;entryY=1;entryDx=0;entryDy=0;exitX=1;exitY=0.5;exitDx=0;exitDy=0;endArrow=none;endFill=0;" parent="1" source="87wVxwsKgg1wfdDSbdAy-121" target="87wVxwsKgg1wfdDSbdAy-119" edge="1">
          <mxGeometry relative="1" as="geometry">
            <mxPoint x="710" y="330" as="sourcePoint" />
            <mxPoint x="750" y="280" as="targetPoint" />
            <Array as="points">
              <mxPoint x="855" y="235" />
            </Array>
          </mxGeometry>
        </mxCell>
        <mxCell id="87wVxwsKgg1wfdDSbdAy-137" style="edgeStyle=orthogonalEdgeStyle;rounded=0;orthogonalLoop=1;jettySize=auto;html=1;entryX=1;entryY=0.5;entryDx=0;entryDy=0;exitX=1;exitY=0.5;exitDx=0;exitDy=0;" parent="1" source="87wVxwsKgg1wfdDSbdAy-159" target="87wVxwsKgg1wfdDSbdAy-119" edge="1">
          <mxGeometry relative="1" as="geometry">
            <mxPoint x="840" y="30" as="sourcePoint" />
            <Array as="points">
              <mxPoint x="960" y="30" />
              <mxPoint x="960" y="190" />
            </Array>
          </mxGeometry>
        </mxCell>
        <mxCell id="87wVxwsKgg1wfdDSbdAy-140" style="edgeStyle=orthogonalEdgeStyle;rounded=0;orthogonalLoop=1;jettySize=auto;html=1;entryX=1;entryY=0.5;entryDx=0;entryDy=0;" parent="1" source="87wVxwsKgg1wfdDSbdAy-131" target="87wVxwsKgg1wfdDSbdAy-119" edge="1">
          <mxGeometry relative="1" as="geometry">
            <Array as="points">
              <mxPoint x="960" y="130" />
              <mxPoint x="960" y="190" />
            </Array>
          </mxGeometry>
        </mxCell>
        <mxCell id="87wVxwsKgg1wfdDSbdAy-131" value="ord_id" style="ellipse;whiteSpace=wrap;html=1;align=center;" parent="1" vertex="1">
          <mxGeometry x="870" y="110" width="80" height="40" as="geometry" />
        </mxCell>
        <mxCell id="87wVxwsKgg1wfdDSbdAy-141" style="edgeStyle=orthogonalEdgeStyle;rounded=0;orthogonalLoop=1;jettySize=auto;html=1;entryX=1;entryY=0.5;entryDx=0;entryDy=0;" parent="1" source="87wVxwsKgg1wfdDSbdAy-132" target="87wVxwsKgg1wfdDSbdAy-119" edge="1">
          <mxGeometry relative="1" as="geometry">
            <Array as="points">
              <mxPoint x="960" y="180" />
              <mxPoint x="960" y="190" />
            </Array>
          </mxGeometry>
        </mxCell>
        <mxCell id="87wVxwsKgg1wfdDSbdAy-132" value="estimated&lt;br&gt;price" style="ellipse;whiteSpace=wrap;html=1;align=center;" parent="1" vertex="1">
          <mxGeometry x="970" y="160" width="80" height="40" as="geometry" />
        </mxCell>
        <mxCell id="87wVxwsKgg1wfdDSbdAy-142" style="edgeStyle=orthogonalEdgeStyle;rounded=0;orthogonalLoop=1;jettySize=auto;html=1;entryX=1;entryY=0.5;entryDx=0;entryDy=0;" parent="1" source="87wVxwsKgg1wfdDSbdAy-133" target="87wVxwsKgg1wfdDSbdAy-119" edge="1">
          <mxGeometry relative="1" as="geometry">
            <Array as="points">
              <mxPoint x="960" y="80" />
              <mxPoint x="960" y="190" />
            </Array>
          </mxGeometry>
        </mxCell>
        <mxCell id="87wVxwsKgg1wfdDSbdAy-133" value="time" style="ellipse;whiteSpace=wrap;html=1;align=center;" parent="1" vertex="1">
          <mxGeometry x="970" y="60" width="80" height="40" as="geometry" />
        </mxCell>
        <mxCell id="87wVxwsKgg1wfdDSbdAy-138" style="edgeStyle=orthogonalEdgeStyle;rounded=0;orthogonalLoop=1;jettySize=auto;html=1;entryX=1;entryY=0.5;entryDx=0;entryDy=0;" parent="1" source="87wVxwsKgg1wfdDSbdAy-134" target="87wVxwsKgg1wfdDSbdAy-119" edge="1">
          <mxGeometry relative="1" as="geometry">
            <Array as="points">
              <mxPoint x="960" y="30" />
              <mxPoint x="960" y="190" />
            </Array>
          </mxGeometry>
        </mxCell>
        <mxCell id="87wVxwsKgg1wfdDSbdAy-134" value="date" style="ellipse;whiteSpace=wrap;html=1;align=center;" parent="1" vertex="1">
          <mxGeometry x="970" y="10" width="80" height="40" as="geometry" />
        </mxCell>
        <mxCell id="87wVxwsKgg1wfdDSbdAy-139" style="edgeStyle=orthogonalEdgeStyle;rounded=0;orthogonalLoop=1;jettySize=auto;html=1;entryX=1;entryY=0.5;entryDx=0;entryDy=0;" parent="1" source="87wVxwsKgg1wfdDSbdAy-135" target="87wVxwsKgg1wfdDSbdAy-119" edge="1">
          <mxGeometry relative="1" as="geometry">
            <Array as="points">
              <mxPoint x="960" y="80" />
              <mxPoint x="960" y="190" />
            </Array>
          </mxGeometry>
        </mxCell>
        <mxCell id="87wVxwsKgg1wfdDSbdAy-135" value="tec_id" style="ellipse;whiteSpace=wrap;html=1;align=center;" parent="1" vertex="1">
          <mxGeometry x="870" y="60" width="80" height="40" as="geometry" />
        </mxCell>
        <mxCell id="87wVxwsKgg1wfdDSbdAy-143" style="edgeStyle=orthogonalEdgeStyle;rounded=0;orthogonalLoop=1;jettySize=auto;html=1;entryX=1;entryY=0.5;entryDx=0;entryDy=0;" parent="1" source="87wVxwsKgg1wfdDSbdAy-136" target="87wVxwsKgg1wfdDSbdAy-119" edge="1">
          <mxGeometry relative="1" as="geometry">
            <Array as="points">
              <mxPoint x="960" y="130" />
              <mxPoint x="960" y="190" />
            </Array>
          </mxGeometry>
        </mxCell>
        <mxCell id="87wVxwsKgg1wfdDSbdAy-136" value="estimated&lt;br&gt;time" style="ellipse;whiteSpace=wrap;html=1;align=center;" parent="1" vertex="1">
          <mxGeometry x="970" y="110" width="80" height="40" as="geometry" />
        </mxCell>
        <mxCell id="87wVxwsKgg1wfdDSbdAy-146" value="admin" style="whiteSpace=wrap;html=1;align=center;" parent="1" vertex="1">
          <mxGeometry x="150" y="700" width="100" height="40" as="geometry" />
        </mxCell>
        <mxCell id="87wVxwsKgg1wfdDSbdAy-152" style="edgeStyle=orthogonalEdgeStyle;rounded=0;orthogonalLoop=1;jettySize=auto;html=1;exitX=1;exitY=0.5;exitDx=0;exitDy=0;entryX=0;entryY=0.5;entryDx=0;entryDy=0;" parent="1" source="87wVxwsKgg1wfdDSbdAy-148" target="87wVxwsKgg1wfdDSbdAy-146" edge="1">
          <mxGeometry relative="1" as="geometry">
            <Array as="points">
              <mxPoint x="100" y="630" />
              <mxPoint x="100" y="720" />
            </Array>
            <mxPoint x="450" y="780" as="targetPoint" />
          </mxGeometry>
        </mxCell>
        <mxCell id="87wVxwsKgg1wfdDSbdAy-148" value="admin_id" style="ellipse;whiteSpace=wrap;html=1;align=center;fontStyle=4;" parent="1" vertex="1">
          <mxGeometry x="10" y="610" width="80" height="40" as="geometry" />
        </mxCell>
        <mxCell id="87wVxwsKgg1wfdDSbdAy-154" style="edgeStyle=orthogonalEdgeStyle;rounded=0;orthogonalLoop=1;jettySize=auto;html=1;exitX=1;exitY=0.5;exitDx=0;exitDy=0;entryX=0;entryY=0.5;entryDx=0;entryDy=0;" parent="1" source="87wVxwsKgg1wfdDSbdAy-149" target="87wVxwsKgg1wfdDSbdAy-146" edge="1">
          <mxGeometry relative="1" as="geometry">
            <Array as="points">
              <mxPoint x="100" y="780" />
              <mxPoint x="100" y="720" />
            </Array>
            <mxPoint x="450" y="780" as="targetPoint" />
          </mxGeometry>
        </mxCell>
        <mxCell id="87wVxwsKgg1wfdDSbdAy-149" value="last name" style="ellipse;whiteSpace=wrap;html=1;align=center;" parent="1" vertex="1">
          <mxGeometry x="10" y="760" width="80" height="40" as="geometry" />
        </mxCell>
        <mxCell id="87wVxwsKgg1wfdDSbdAy-153" style="edgeStyle=orthogonalEdgeStyle;rounded=0;orthogonalLoop=1;jettySize=auto;html=1;exitX=0;exitY=0.5;exitDx=0;exitDy=0;entryX=0;entryY=0.5;entryDx=0;entryDy=0;" parent="1" source="87wVxwsKgg1wfdDSbdAy-150" target="87wVxwsKgg1wfdDSbdAy-146" edge="1">
          <mxGeometry relative="1" as="geometry">
            <Array as="points">
              <mxPoint x="100" y="670" />
              <mxPoint x="100" y="720" />
            </Array>
            <mxPoint x="620" y="790" as="sourcePoint" />
            <mxPoint x="146.160009765625" y="730" as="targetPoint" />
          </mxGeometry>
        </mxCell>
        <mxCell id="87wVxwsKgg1wfdDSbdAy-150" value="account" style="ellipse;whiteSpace=wrap;html=1;align=center;" parent="1" vertex="1">
          <mxGeometry x="110" y="650" width="80" height="40" as="geometry" />
        </mxCell>
        <mxCell id="87wVxwsKgg1wfdDSbdAy-155" style="edgeStyle=orthogonalEdgeStyle;rounded=0;orthogonalLoop=1;jettySize=auto;html=1;entryX=0;entryY=0.5;entryDx=0;entryDy=0;" parent="1" source="87wVxwsKgg1wfdDSbdAy-151" target="87wVxwsKgg1wfdDSbdAy-146" edge="1">
          <mxGeometry relative="1" as="geometry">
            <Array as="points">
              <mxPoint x="100" y="690" />
              <mxPoint x="100" y="720" />
            </Array>
            <mxPoint x="460" y="790" as="targetPoint" />
          </mxGeometry>
        </mxCell>
        <mxCell id="87wVxwsKgg1wfdDSbdAy-151" value="user_name" style="ellipse;whiteSpace=wrap;html=1;align=center;" parent="1" vertex="1">
          <mxGeometry x="10" y="660" width="80" height="40" as="geometry" />
        </mxCell>
        <mxCell id="O7f6ndupmdNj3DA_yaev-19" style="edgeStyle=orthogonalEdgeStyle;rounded=0;orthogonalLoop=1;jettySize=auto;html=1;entryX=0;entryY=0.5;entryDx=0;entryDy=0;endArrow=none;endFill=0;" parent="1" source="87wVxwsKgg1wfdDSbdAy-157" target="we7u0cD3R3zxt0RhFut2-25" edge="1">
          <mxGeometry relative="1" as="geometry" />
        </mxCell>
        <mxCell id="87wVxwsKgg1wfdDSbdAy-157" value="do" style="shape=rhombus;perimeter=rhombusPerimeter;whiteSpace=wrap;html=1;align=center;" parent="1" vertex="1">
          <mxGeometry x="350" y="670" width="70" height="70" as="geometry" />
        </mxCell>
        <mxCell id="87wVxwsKgg1wfdDSbdAy-159" value="res_id" style="ellipse;whiteSpace=wrap;html=1;align=center;fontStyle=4;" parent="1" vertex="1">
          <mxGeometry x="870" y="10" width="80" height="40" as="geometry" />
        </mxCell>
        <mxCell id="we7u0cD3R3zxt0RhFut2-10" style="edgeStyle=orthogonalEdgeStyle;rounded=0;orthogonalLoop=1;jettySize=auto;html=1;entryX=0.5;entryY=0;entryDx=0;entryDy=0;" parent="1" edge="1">
          <mxGeometry relative="1" as="geometry">
            <Array as="points">
              <mxPoint x="960" y="30" />
              <mxPoint x="960" y="160" />
              <mxPoint x="940" y="160" />
            </Array>
            <mxPoint x="949.9999999999998" y="30.000000000000057" as="sourcePoint" />
          </mxGeometry>
        </mxCell>
        <mxCell id="we7u0cD3R3zxt0RhFut2-11" style="edgeStyle=orthogonalEdgeStyle;rounded=0;orthogonalLoop=1;jettySize=auto;html=1;entryX=0.5;entryY=0;entryDx=0;entryDy=0;" parent="1" edge="1">
          <mxGeometry relative="1" as="geometry">
            <Array as="points">
              <mxPoint x="960" y="80" />
              <mxPoint x="960" y="160" />
              <mxPoint x="940" y="160" />
            </Array>
            <mxPoint x="949.9999999999998" y="80.00000000000006" as="sourcePoint" />
          </mxGeometry>
        </mxCell>
        <mxCell id="we7u0cD3R3zxt0RhFut2-12" style="edgeStyle=orthogonalEdgeStyle;rounded=0;orthogonalLoop=1;jettySize=auto;html=1;entryX=0.5;entryY=0;entryDx=0;entryDy=0;" parent="1" edge="1">
          <mxGeometry relative="1" as="geometry">
            <Array as="points">
              <mxPoint x="960" y="130" />
              <mxPoint x="960" y="160" />
              <mxPoint x="940" y="160" />
            </Array>
            <mxPoint x="949.9999999999998" y="130" as="sourcePoint" />
          </mxGeometry>
        </mxCell>
        <mxCell id="we7u0cD3R3zxt0RhFut2-18" style="edgeStyle=orthogonalEdgeStyle;rounded=0;orthogonalLoop=1;jettySize=auto;html=1;entryX=0.5;entryY=0;entryDx=0;entryDy=0;" parent="1" edge="1">
          <mxGeometry relative="1" as="geometry">
            <Array as="points">
              <mxPoint x="960" y="80" />
              <mxPoint x="960" y="160" />
              <mxPoint x="940" y="160" />
            </Array>
            <mxPoint x="969.9999999999998" y="80.00000000000006" as="sourcePoint" />
          </mxGeometry>
        </mxCell>
        <mxCell id="we7u0cD3R3zxt0RhFut2-17" style="edgeStyle=orthogonalEdgeStyle;rounded=0;orthogonalLoop=1;jettySize=auto;html=1;entryX=0.5;entryY=0;entryDx=0;entryDy=0;" parent="1" edge="1">
          <mxGeometry relative="1" as="geometry">
            <Array as="points">
              <mxPoint x="960" y="30" />
              <mxPoint x="960" y="160" />
              <mxPoint x="940" y="160" />
            </Array>
            <mxPoint x="969.9999999999998" y="30.000000000000057" as="sourcePoint" />
          </mxGeometry>
        </mxCell>
        <mxCell id="we7u0cD3R3zxt0RhFut2-16" style="edgeStyle=orthogonalEdgeStyle;rounded=0;orthogonalLoop=1;jettySize=auto;html=1;entryX=0.5;entryY=0;entryDx=0;entryDy=0;exitX=1;exitY=0.5;exitDx=0;exitDy=0;" parent="1" edge="1">
          <mxGeometry relative="1" as="geometry">
            <Array as="points">
              <mxPoint x="870" y="180" />
              <mxPoint x="870" y="160" />
              <mxPoint x="940" y="160" />
            </Array>
            <mxPoint x="859.9999999999998" y="180" as="sourcePoint" />
          </mxGeometry>
        </mxCell>
        <mxCell id="we7u0cD3R3zxt0RhFut2-15" style="edgeStyle=orthogonalEdgeStyle;rounded=0;orthogonalLoop=1;jettySize=auto;html=1;entryX=0.5;entryY=0;entryDx=0;entryDy=0;" parent="1" edge="1">
          <mxGeometry relative="1" as="geometry">
            <Array as="points">
              <mxPoint x="960" y="130" />
              <mxPoint x="960" y="160" />
              <mxPoint x="940" y="160" />
            </Array>
            <mxPoint x="969.9999999999998" y="130" as="sourcePoint" />
          </mxGeometry>
        </mxCell>
        <mxCell id="we7u0cD3R3zxt0RhFut2-23" value="1" style="text;html=1;align=center;verticalAlign=middle;resizable=0;points=[];autosize=1;strokeColor=none;fillColor=none;" parent="1" vertex="1">
          <mxGeometry x="510" y="660" width="30" height="30" as="geometry" />
        </mxCell>
        <mxCell id="we7u0cD3R3zxt0RhFut2-156" style="edgeStyle=orthogonalEdgeStyle;rounded=0;orthogonalLoop=1;jettySize=auto;html=1;entryX=0;entryY=0.5;entryDx=0;entryDy=0;exitX=0.5;exitY=0;exitDx=0;exitDy=0;endArrow=none;endFill=0;" parent="1" source="we7u0cD3R3zxt0RhFut2-25" target="we7u0cD3R3zxt0RhFut2-35" edge="1">
          <mxGeometry relative="1" as="geometry">
            <Array as="points">
              <mxPoint x="510" y="635" />
            </Array>
          </mxGeometry>
        </mxCell>
        <mxCell id="we7u0cD3R3zxt0RhFut2-25" value="service" style="whiteSpace=wrap;html=1;align=center;" parent="1" vertex="1">
          <mxGeometry x="460" y="690" width="100" height="40" as="geometry" />
        </mxCell>
        <mxCell id="we7u0cD3R3zxt0RhFut2-31" style="edgeStyle=orthogonalEdgeStyle;rounded=0;orthogonalLoop=1;jettySize=auto;html=1;entryX=0.5;entryY=1;entryDx=0;entryDy=0;" parent="1" source="we7u0cD3R3zxt0RhFut2-26" target="we7u0cD3R3zxt0RhFut2-25" edge="1">
          <mxGeometry relative="1" as="geometry">
            <Array as="points">
              <mxPoint x="600" y="760" />
              <mxPoint x="510" y="760" />
            </Array>
          </mxGeometry>
        </mxCell>
        <mxCell id="we7u0cD3R3zxt0RhFut2-26" value="service_name" style="ellipse;whiteSpace=wrap;html=1;align=center;" parent="1" vertex="1">
          <mxGeometry x="560" y="770" width="80" height="40" as="geometry" />
        </mxCell>
        <mxCell id="we7u0cD3R3zxt0RhFut2-30" style="edgeStyle=orthogonalEdgeStyle;rounded=0;orthogonalLoop=1;jettySize=auto;html=1;entryX=0.5;entryY=1;entryDx=0;entryDy=0;exitX=0.5;exitY=0;exitDx=0;exitDy=0;" parent="1" source="we7u0cD3R3zxt0RhFut2-27" target="we7u0cD3R3zxt0RhFut2-25" edge="1">
          <mxGeometry relative="1" as="geometry">
            <Array as="points">
              <mxPoint x="420" y="760" />
              <mxPoint x="510" y="760" />
            </Array>
          </mxGeometry>
        </mxCell>
        <mxCell id="we7u0cD3R3zxt0RhFut2-27" value="se_id" style="ellipse;whiteSpace=wrap;html=1;align=center;fontStyle=4;" parent="1" vertex="1">
          <mxGeometry x="380" y="770" width="80" height="40" as="geometry" />
        </mxCell>
        <mxCell id="we7u0cD3R3zxt0RhFut2-29" style="edgeStyle=orthogonalEdgeStyle;rounded=0;orthogonalLoop=1;jettySize=auto;html=1;entryX=0.5;entryY=1;entryDx=0;entryDy=0;exitX=0.5;exitY=0;exitDx=0;exitDy=0;" parent="1" source="we7u0cD3R3zxt0RhFut2-28" target="we7u0cD3R3zxt0RhFut2-25" edge="1">
          <mxGeometry relative="1" as="geometry">
            <Array as="points">
              <mxPoint x="510" y="750" />
              <mxPoint x="510" y="750" />
            </Array>
            <mxPoint x="560" y="680" as="sourcePoint" />
            <mxPoint x="460" y="620" as="targetPoint" />
          </mxGeometry>
        </mxCell>
        <mxCell id="we7u0cD3R3zxt0RhFut2-28" value="mse_id" style="ellipse;whiteSpace=wrap;html=1;align=center;" parent="1" vertex="1">
          <mxGeometry x="470" y="770" width="80" height="40" as="geometry" />
        </mxCell>
        <mxCell id="vmQZ8xtDYOCq7PcfICJz-42" style="edgeStyle=orthogonalEdgeStyle;rounded=0;orthogonalLoop=1;jettySize=auto;html=1;entryX=0.5;entryY=0;entryDx=0;entryDy=0;endArrow=none;endFill=0;exitX=1;exitY=0.5;exitDx=0;exitDy=0;" parent="1" source="we7u0cD3R3zxt0RhFut2-35" target="we7u0cD3R3zxt0RhFut2-39" edge="1">
          <mxGeometry relative="1" as="geometry">
            <Array as="points">
              <mxPoint x="650" y="635" />
            </Array>
          </mxGeometry>
        </mxCell>
        <mxCell id="we7u0cD3R3zxt0RhFut2-35" value="belong" style="shape=rhombus;perimeter=rhombusPerimeter;whiteSpace=wrap;html=1;align=center;" parent="1" vertex="1">
          <mxGeometry x="550" y="600" width="70" height="70" as="geometry" />
        </mxCell>
        <mxCell id="we7u0cD3R3zxt0RhFut2-159" style="edgeStyle=orthogonalEdgeStyle;rounded=0;orthogonalLoop=1;jettySize=auto;html=1;exitX=0.5;exitY=0;exitDx=0;exitDy=0;entryX=0.5;entryY=1;entryDx=0;entryDy=0;" parent="1" source="we7u0cD3R3zxt0RhFut2-37" target="we7u0cD3R3zxt0RhFut2-39" edge="1">
          <mxGeometry relative="1" as="geometry">
            <Array as="points">
              <mxPoint x="780" y="760" />
              <mxPoint x="650" y="760" />
            </Array>
            <mxPoint x="840" y="760" as="sourcePoint" />
            <mxPoint x="650" y="710" as="targetPoint" />
          </mxGeometry>
        </mxCell>
        <mxCell id="we7u0cD3R3zxt0RhFut2-37" value="service_name" style="ellipse;whiteSpace=wrap;html=1;align=center;" parent="1" vertex="1">
          <mxGeometry x="740" y="770" width="80" height="40" as="geometry" />
        </mxCell>
        <mxCell id="we7u0cD3R3zxt0RhFut2-160" style="edgeStyle=orthogonalEdgeStyle;rounded=0;orthogonalLoop=1;jettySize=auto;html=1;entryX=0.5;entryY=1;entryDx=0;entryDy=0;exitX=0.5;exitY=0;exitDx=0;exitDy=0;" parent="1" source="we7u0cD3R3zxt0RhFut2-38" target="we7u0cD3R3zxt0RhFut2-39" edge="1">
          <mxGeometry relative="1" as="geometry">
            <Array as="points">
              <mxPoint x="690" y="760" />
              <mxPoint x="650" y="760" />
            </Array>
          </mxGeometry>
        </mxCell>
        <mxCell id="we7u0cD3R3zxt0RhFut2-38" value="mse_id" style="ellipse;whiteSpace=wrap;html=1;align=center;fontStyle=4;" parent="1" vertex="1">
          <mxGeometry x="650" y="770" width="80" height="40" as="geometry" />
        </mxCell>
        <mxCell id="we7u0cD3R3zxt0RhFut2-39" value="main service" style="whiteSpace=wrap;html=1;align=center;" parent="1" vertex="1">
          <mxGeometry x="600" y="690" width="100" height="40" as="geometry" />
        </mxCell>
        <mxCell id="O7f6ndupmdNj3DA_yaev-40" style="edgeStyle=orthogonalEdgeStyle;rounded=0;orthogonalLoop=1;jettySize=auto;html=1;entryX=1;entryY=0.5;entryDx=0;entryDy=0;endArrow=none;endFill=0;" parent="1" source="we7u0cD3R3zxt0RhFut2-80" target="O7f6ndupmdNj3DA_yaev-41" edge="1">
          <mxGeometry relative="1" as="geometry">
            <mxPoint x="610" y="470" as="targetPoint" />
            <Array as="points">
              <mxPoint x="790" y="485" />
            </Array>
          </mxGeometry>
        </mxCell>
        <mxCell id="O7f6ndupmdNj3DA_yaev-85" style="edgeStyle=orthogonalEdgeStyle;rounded=0;orthogonalLoop=1;jettySize=auto;html=1;entryX=0.5;entryY=0;entryDx=0;entryDy=0;endArrow=none;endFill=0;" parent="1" source="we7u0cD3R3zxt0RhFut2-80" target="we7u0cD3R3zxt0RhFut2-93" edge="1">
          <mxGeometry relative="1" as="geometry">
            <Array as="points">
              <mxPoint x="790" y="480" />
              <mxPoint x="795" y="480" />
            </Array>
          </mxGeometry>
        </mxCell>
        <mxCell id="we7u0cD3R3zxt0RhFut2-80" value="user_feedback" style="shape=ext;margin=3;double=1;whiteSpace=wrap;html=1;align=center;" parent="1" vertex="1">
          <mxGeometry x="710" y="400" width="100" height="40" as="geometry" />
        </mxCell>
        <mxCell id="O7f6ndupmdNj3DA_yaev-77" style="edgeStyle=orthogonalEdgeStyle;rounded=0;orthogonalLoop=1;jettySize=auto;html=1;entryX=0.293;entryY=-0.024;entryDx=0;entryDy=0;entryPerimeter=0;" parent="1" source="we7u0cD3R3zxt0RhFut2-82" target="we7u0cD3R3zxt0RhFut2-80" edge="1">
          <mxGeometry relative="1" as="geometry">
            <Array as="points">
              <mxPoint x="740" y="370" />
              <mxPoint x="740" y="399" />
            </Array>
          </mxGeometry>
        </mxCell>
        <mxCell id="we7u0cD3R3zxt0RhFut2-82" value="description" style="ellipse;whiteSpace=wrap;html=1;align=center;" parent="1" vertex="1">
          <mxGeometry x="650" y="350" width="80" height="40" as="geometry" />
        </mxCell>
        <mxCell id="O7f6ndupmdNj3DA_yaev-76" style="edgeStyle=orthogonalEdgeStyle;rounded=0;orthogonalLoop=1;jettySize=auto;html=1;entryX=0.302;entryY=-0.024;entryDx=0;entryDy=0;entryPerimeter=0;" parent="1" source="we7u0cD3R3zxt0RhFut2-83" target="we7u0cD3R3zxt0RhFut2-80" edge="1">
          <mxGeometry relative="1" as="geometry">
            <Array as="points">
              <mxPoint x="740" y="320" />
              <mxPoint x="740" y="399" />
            </Array>
          </mxGeometry>
        </mxCell>
        <mxCell id="we7u0cD3R3zxt0RhFut2-83" value="ord_id" style="ellipse;whiteSpace=wrap;html=1;align=center;" parent="1" vertex="1">
          <mxGeometry x="650" y="300" width="80" height="40" as="geometry" />
        </mxCell>
        <mxCell id="O7f6ndupmdNj3DA_yaev-75" style="edgeStyle=orthogonalEdgeStyle;rounded=0;orthogonalLoop=1;jettySize=auto;html=1;" parent="1" source="we7u0cD3R3zxt0RhFut2-84" target="we7u0cD3R3zxt0RhFut2-80" edge="1">
          <mxGeometry relative="1" as="geometry">
            <Array as="points">
              <mxPoint x="740" y="270" />
            </Array>
          </mxGeometry>
        </mxCell>
        <mxCell id="we7u0cD3R3zxt0RhFut2-84" value="ufd_id" style="ellipse;whiteSpace=wrap;html=1;align=center;fontStyle=4;" parent="1" vertex="1">
          <mxGeometry x="650" y="250" width="80" height="40" as="geometry" />
        </mxCell>
        <mxCell id="we7u0cD3R3zxt0RhFut2-87" value="1" style="text;html=1;align=center;verticalAlign=middle;resizable=0;points=[];autosize=1;strokeColor=none;fillColor=none;" parent="1" vertex="1">
          <mxGeometry x="760" y="440" width="30" height="30" as="geometry" />
        </mxCell>
        <mxCell id="we7u0cD3R3zxt0RhFut2-95" style="edgeStyle=orthogonalEdgeStyle;rounded=0;orthogonalLoop=1;jettySize=auto;html=1;endArrow=none;endFill=0;entryX=0.5;entryY=0;entryDx=0;entryDy=0;exitX=0.5;exitY=1;exitDx=0;exitDy=0;" parent="1" source="we7u0cD3R3zxt0RhFut2-93" target="we7u0cD3R3zxt0RhFut2-94" edge="1">
          <mxGeometry relative="1" as="geometry">
            <mxPoint x="800" y="700" as="targetPoint" />
            <Array as="points">
              <mxPoint x="795" y="580" />
              <mxPoint x="810" y="580" />
              <mxPoint x="810" y="610" />
            </Array>
          </mxGeometry>
        </mxCell>
        <mxCell id="we7u0cD3R3zxt0RhFut2-93" value="has" style="shape=rhombus;perimeter=rhombusPerimeter;whiteSpace=wrap;html=1;align=center;double=1;" parent="1" vertex="1">
          <mxGeometry x="760" y="500" width="70" height="70" as="geometry" />
        </mxCell>
        <mxCell id="we7u0cD3R3zxt0RhFut2-94" value="user feedback&lt;br&gt;response" style="shape=ext;margin=3;double=1;whiteSpace=wrap;html=1;align=center;" parent="1" vertex="1">
          <mxGeometry x="740" y="610" width="120" height="40" as="geometry" />
        </mxCell>
        <mxCell id="we7u0cD3R3zxt0RhFut2-96" value="1" style="text;html=1;align=center;verticalAlign=middle;resizable=0;points=[];autosize=1;strokeColor=none;fillColor=none;" parent="1" vertex="1">
          <mxGeometry x="920" y="220" width="30" height="30" as="geometry" />
        </mxCell>
        <mxCell id="we7u0cD3R3zxt0RhFut2-104" style="edgeStyle=orthogonalEdgeStyle;rounded=0;orthogonalLoop=1;jettySize=auto;html=1;" parent="1" source="we7u0cD3R3zxt0RhFut2-98" edge="1">
          <mxGeometry relative="1" as="geometry">
            <Array as="points">
              <mxPoint x="800" y="680" />
            </Array>
            <mxPoint x="800" y="650" as="targetPoint" />
          </mxGeometry>
        </mxCell>
        <mxCell id="we7u0cD3R3zxt0RhFut2-98" value="ufd_id" style="ellipse;whiteSpace=wrap;html=1;align=center;" parent="1" vertex="1">
          <mxGeometry x="810" y="660" width="80" height="40" as="geometry" />
        </mxCell>
        <mxCell id="we7u0cD3R3zxt0RhFut2-103" style="edgeStyle=orthogonalEdgeStyle;rounded=0;orthogonalLoop=1;jettySize=auto;html=1;entryX=0.5;entryY=1;entryDx=0;entryDy=0;exitX=1;exitY=0.5;exitDx=0;exitDy=0;" parent="1" source="we7u0cD3R3zxt0RhFut2-99" target="we7u0cD3R3zxt0RhFut2-94" edge="1">
          <mxGeometry relative="1" as="geometry">
            <Array as="points">
              <mxPoint x="800" y="730" />
            </Array>
            <mxPoint x="790" y="1070" as="targetPoint" />
          </mxGeometry>
        </mxCell>
        <mxCell id="we7u0cD3R3zxt0RhFut2-99" value="admin_id" style="ellipse;whiteSpace=wrap;html=1;align=center;" parent="1" vertex="1">
          <mxGeometry x="710" y="710" width="80" height="40" as="geometry" />
        </mxCell>
        <mxCell id="we7u0cD3R3zxt0RhFut2-105" style="edgeStyle=orthogonalEdgeStyle;rounded=0;orthogonalLoop=1;jettySize=auto;html=1;entryX=0.5;entryY=1;entryDx=0;entryDy=0;" parent="1" source="we7u0cD3R3zxt0RhFut2-100" target="we7u0cD3R3zxt0RhFut2-94" edge="1">
          <mxGeometry relative="1" as="geometry">
            <Array as="points">
              <mxPoint x="800" y="730" />
            </Array>
            <mxPoint x="860" y="780" as="targetPoint" />
          </mxGeometry>
        </mxCell>
        <mxCell id="we7u0cD3R3zxt0RhFut2-100" value="response" style="ellipse;whiteSpace=wrap;html=1;align=center;" parent="1" vertex="1">
          <mxGeometry x="810" y="710" width="80" height="40" as="geometry" />
        </mxCell>
        <mxCell id="we7u0cD3R3zxt0RhFut2-102" style="edgeStyle=orthogonalEdgeStyle;rounded=0;orthogonalLoop=1;jettySize=auto;html=1;entryX=0.5;entryY=1;entryDx=0;entryDy=0;exitX=1;exitY=0.5;exitDx=0;exitDy=0;" parent="1" source="we7u0cD3R3zxt0RhFut2-101" target="we7u0cD3R3zxt0RhFut2-94" edge="1">
          <mxGeometry relative="1" as="geometry">
            <Array as="points">
              <mxPoint x="800" y="680" />
            </Array>
            <mxPoint x="790" y="1070" as="targetPoint" />
          </mxGeometry>
        </mxCell>
        <mxCell id="we7u0cD3R3zxt0RhFut2-101" value="fb_res_id" style="ellipse;whiteSpace=wrap;html=1;align=center;fontStyle=4;" parent="1" vertex="1">
          <mxGeometry x="710" y="660" width="80" height="40" as="geometry" />
        </mxCell>
        <mxCell id="vmQZ8xtDYOCq7PcfICJz-5" style="edgeStyle=orthogonalEdgeStyle;rounded=0;orthogonalLoop=1;jettySize=auto;html=1;entryX=0.5;entryY=0;entryDx=0;entryDy=0;endArrow=none;endFill=0;exitX=0.61;exitY=1.024;exitDx=0;exitDy=0;exitPerimeter=0;" parent="1" source="we7u0cD3R3zxt0RhFut2-107" target="we7u0cD3R3zxt0RhFut2-116" edge="1">
          <mxGeometry relative="1" as="geometry">
            <Array as="points">
              <mxPoint x="935" y="440" />
              <mxPoint x="965" y="440" />
            </Array>
          </mxGeometry>
        </mxCell>
        <mxCell id="we7u0cD3R3zxt0RhFut2-107" value="technician _feedback" style="shape=ext;margin=3;double=1;whiteSpace=wrap;html=1;align=center;" parent="1" vertex="1">
          <mxGeometry x="850" y="250" width="140" height="40" as="geometry" />
        </mxCell>
        <mxCell id="we7u0cD3R3zxt0RhFut2-134" style="edgeStyle=orthogonalEdgeStyle;rounded=0;orthogonalLoop=1;jettySize=auto;html=1;entryX=0.75;entryY=1;entryDx=0;entryDy=0;" parent="1" source="we7u0cD3R3zxt0RhFut2-109" target="we7u0cD3R3zxt0RhFut2-107" edge="1">
          <mxGeometry relative="1" as="geometry">
            <Array as="points">
              <mxPoint x="955" y="370" />
            </Array>
            <mxPoint x="1050" y="560" as="targetPoint" />
          </mxGeometry>
        </mxCell>
        <mxCell id="we7u0cD3R3zxt0RhFut2-109" value="description" style="ellipse;whiteSpace=wrap;html=1;align=center;" parent="1" vertex="1">
          <mxGeometry x="970" y="350" width="80" height="40" as="geometry" />
        </mxCell>
        <mxCell id="we7u0cD3R3zxt0RhFut2-133" style="edgeStyle=orthogonalEdgeStyle;rounded=0;orthogonalLoop=1;jettySize=auto;html=1;entryX=0.75;entryY=1;entryDx=0;entryDy=0;exitX=0;exitY=0.5;exitDx=0;exitDy=0;" parent="1" source="we7u0cD3R3zxt0RhFut2-112" target="we7u0cD3R3zxt0RhFut2-107" edge="1">
          <mxGeometry relative="1" as="geometry">
            <Array as="points">
              <mxPoint x="955" y="320" />
            </Array>
          </mxGeometry>
        </mxCell>
        <mxCell id="we7u0cD3R3zxt0RhFut2-112" value="tfd_id" style="ellipse;whiteSpace=wrap;html=1;align=center;fontStyle=4;" parent="1" vertex="1">
          <mxGeometry x="970" y="300" width="80" height="40" as="geometry" />
        </mxCell>
        <mxCell id="O7f6ndupmdNj3DA_yaev-86" style="edgeStyle=orthogonalEdgeStyle;rounded=0;orthogonalLoop=1;jettySize=auto;html=1;entryX=0.5;entryY=0;entryDx=0;entryDy=0;endArrow=none;endFill=0;" parent="1" source="we7u0cD3R3zxt0RhFut2-116" target="we7u0cD3R3zxt0RhFut2-117" edge="1">
          <mxGeometry relative="1" as="geometry">
            <Array as="points">
              <mxPoint x="965" y="540" />
              <mxPoint x="950" y="540" />
            </Array>
          </mxGeometry>
        </mxCell>
        <mxCell id="we7u0cD3R3zxt0RhFut2-116" value="has" style="shape=rhombus;perimeter=rhombusPerimeter;whiteSpace=wrap;html=1;align=center;double=1;" parent="1" vertex="1">
          <mxGeometry x="930" y="460" width="70" height="70" as="geometry" />
        </mxCell>
        <mxCell id="we7u0cD3R3zxt0RhFut2-117" value="tec_fb_response" style="shape=ext;margin=3;double=1;whiteSpace=wrap;html=1;align=center;" parent="1" vertex="1">
          <mxGeometry x="890" y="570" width="120" height="40" as="geometry" />
        </mxCell>
        <mxCell id="O7f6ndupmdNj3DA_yaev-91" style="edgeStyle=orthogonalEdgeStyle;rounded=0;orthogonalLoop=1;jettySize=auto;html=1;entryX=0.5;entryY=1;entryDx=0;entryDy=0;" parent="1" source="we7u0cD3R3zxt0RhFut2-121" target="we7u0cD3R3zxt0RhFut2-117" edge="1">
          <mxGeometry relative="1" as="geometry">
            <Array as="points">
              <mxPoint x="960" y="740" />
              <mxPoint x="960" y="630" />
              <mxPoint x="950" y="630" />
            </Array>
          </mxGeometry>
        </mxCell>
        <mxCell id="we7u0cD3R3zxt0RhFut2-121" value="tfd_id" style="ellipse;whiteSpace=wrap;html=1;align=center;" parent="1" vertex="1">
          <mxGeometry x="970" y="720" width="80" height="40" as="geometry" />
        </mxCell>
        <mxCell id="O7f6ndupmdNj3DA_yaev-87" style="edgeStyle=orthogonalEdgeStyle;rounded=0;orthogonalLoop=1;jettySize=auto;html=1;entryX=0.5;entryY=1;entryDx=0;entryDy=0;" parent="1" source="we7u0cD3R3zxt0RhFut2-123" target="we7u0cD3R3zxt0RhFut2-117" edge="1">
          <mxGeometry relative="1" as="geometry">
            <Array as="points">
              <mxPoint x="960" y="790" />
              <mxPoint x="960" y="630" />
              <mxPoint x="950" y="630" />
            </Array>
          </mxGeometry>
        </mxCell>
        <mxCell id="we7u0cD3R3zxt0RhFut2-123" value="admin_id" style="ellipse;whiteSpace=wrap;html=1;align=center;" parent="1" vertex="1">
          <mxGeometry x="970" y="770" width="80" height="40" as="geometry" />
        </mxCell>
        <mxCell id="O7f6ndupmdNj3DA_yaev-90" style="edgeStyle=orthogonalEdgeStyle;rounded=0;orthogonalLoop=1;jettySize=auto;html=1;entryX=0.5;entryY=1;entryDx=0;entryDy=0;" parent="1" source="we7u0cD3R3zxt0RhFut2-125" target="we7u0cD3R3zxt0RhFut2-117" edge="1">
          <mxGeometry relative="1" as="geometry">
            <Array as="points">
              <mxPoint x="960" y="690" />
              <mxPoint x="960" y="630" />
              <mxPoint x="950" y="630" />
            </Array>
          </mxGeometry>
        </mxCell>
        <mxCell id="we7u0cD3R3zxt0RhFut2-125" value="response" style="ellipse;whiteSpace=wrap;html=1;align=center;" parent="1" vertex="1">
          <mxGeometry x="970" y="670" width="80" height="40" as="geometry" />
        </mxCell>
        <mxCell id="O7f6ndupmdNj3DA_yaev-89" style="edgeStyle=orthogonalEdgeStyle;rounded=0;orthogonalLoop=1;jettySize=auto;html=1;entryX=0.5;entryY=1;entryDx=0;entryDy=0;exitX=0;exitY=0.5;exitDx=0;exitDy=0;" parent="1" source="we7u0cD3R3zxt0RhFut2-127" target="we7u0cD3R3zxt0RhFut2-117" edge="1">
          <mxGeometry relative="1" as="geometry">
            <Array as="points">
              <mxPoint x="970" y="639" />
              <mxPoint x="960" y="639" />
              <mxPoint x="960" y="630" />
              <mxPoint x="950" y="630" />
            </Array>
          </mxGeometry>
        </mxCell>
        <mxCell id="we7u0cD3R3zxt0RhFut2-127" value="fb_res_id" style="ellipse;whiteSpace=wrap;html=1;align=center;fontStyle=4;" parent="1" vertex="1">
          <mxGeometry x="970" y="620" width="80" height="40" as="geometry" />
        </mxCell>
        <mxCell id="we7u0cD3R3zxt0RhFut2-136" style="edgeStyle=orthogonalEdgeStyle;rounded=0;orthogonalLoop=1;jettySize=auto;html=1;entryX=0.75;entryY=1;entryDx=0;entryDy=0;" parent="1" source="we7u0cD3R3zxt0RhFut2-128" target="we7u0cD3R3zxt0RhFut2-107" edge="1">
          <mxGeometry relative="1" as="geometry">
            <Array as="points">
              <mxPoint x="955" y="420" />
            </Array>
          </mxGeometry>
        </mxCell>
        <mxCell id="we7u0cD3R3zxt0RhFut2-128" value="ord_id" style="ellipse;whiteSpace=wrap;html=1;align=center;" parent="1" vertex="1">
          <mxGeometry x="970" y="400" width="80" height="40" as="geometry" />
        </mxCell>
        <mxCell id="we7u0cD3R3zxt0RhFut2-129" style="edgeStyle=orthogonalEdgeStyle;rounded=0;orthogonalLoop=1;jettySize=auto;html=1;exitX=1;exitY=0.5;exitDx=0;exitDy=0;endArrow=none;endFill=0;entryX=0.5;entryY=0;entryDx=0;entryDy=0;" parent="1" source="87wVxwsKgg1wfdDSbdAy-121" target="we7u0cD3R3zxt0RhFut2-107" edge="1">
          <mxGeometry relative="1" as="geometry">
            <mxPoint x="950" y="540" as="targetPoint" />
            <mxPoint x="740" y="280" as="sourcePoint" />
            <Array as="points">
              <mxPoint x="920" y="235" />
            </Array>
          </mxGeometry>
        </mxCell>
        <mxCell id="we7u0cD3R3zxt0RhFut2-132" value="1" style="text;html=1;align=center;verticalAlign=middle;resizable=0;points=[];autosize=1;strokeColor=none;fillColor=none;" parent="1" vertex="1">
          <mxGeometry x="950" y="540" width="30" height="30" as="geometry" />
        </mxCell>
        <mxCell id="ZajRWToph6BI5C4yriId-2" style="edgeStyle=orthogonalEdgeStyle;rounded=0;orthogonalLoop=1;jettySize=auto;html=1;entryX=0;entryY=0.5;entryDx=0;entryDy=0;" parent="1" target="87wVxwsKgg1wfdDSbdAy-3" edge="1">
          <mxGeometry relative="1" as="geometry">
            <Array as="points">
              <mxPoint x="100" y="80" />
              <mxPoint x="100" y="140" />
            </Array>
            <mxPoint x="89.99991999991994" y="80.03999999999996" as="sourcePoint" />
          </mxGeometry>
        </mxCell>
        <mxCell id="ZajRWToph6BI5C4yriId-7" style="edgeStyle=orthogonalEdgeStyle;rounded=0;orthogonalLoop=1;jettySize=auto;html=1;entryX=0.5;entryY=0;entryDx=0;entryDy=0;" parent="1" source="ZajRWToph6BI5C4yriId-3" target="87wVxwsKgg1wfdDSbdAy-83" edge="1">
          <mxGeometry relative="1" as="geometry">
            <Array as="points">
              <mxPoint x="770" y="80" />
              <mxPoint x="770" y="160" />
              <mxPoint x="670" y="160" />
            </Array>
          </mxGeometry>
        </mxCell>
        <mxCell id="ZajRWToph6BI5C4yriId-3" value="order_num" style="ellipse;whiteSpace=wrap;html=1;align=center;" parent="1" vertex="1">
          <mxGeometry x="780" y="60" width="80" height="40" as="geometry" />
        </mxCell>
        <mxCell id="vmQZ8xtDYOCq7PcfICJz-8" value="M" style="text;html=1;align=center;verticalAlign=middle;resizable=0;points=[];autosize=1;strokeColor=none;fillColor=none;" parent="1" vertex="1">
          <mxGeometry x="830" y="210" width="30" height="30" as="geometry" />
        </mxCell>
        <mxCell id="vmQZ8xtDYOCq7PcfICJz-10" value="status" style="whiteSpace=wrap;html=1;align=center;" parent="1" vertex="1">
          <mxGeometry x="780" y="300" width="100" height="40" as="geometry" />
        </mxCell>
        <mxCell id="vmQZ8xtDYOCq7PcfICJz-13" style="edgeStyle=orthogonalEdgeStyle;rounded=0;orthogonalLoop=1;jettySize=auto;html=1;entryX=0.5;entryY=1;entryDx=0;entryDy=0;exitX=0;exitY=0.5;exitDx=0;exitDy=0;" parent="1" source="vmQZ8xtDYOCq7PcfICJz-14" target="vmQZ8xtDYOCq7PcfICJz-10" edge="1">
          <mxGeometry relative="1" as="geometry">
            <Array as="points">
              <mxPoint x="830" y="470" />
            </Array>
          </mxGeometry>
        </mxCell>
        <mxCell id="vmQZ8xtDYOCq7PcfICJz-14" value="status&lt;br&gt;discreption" style="ellipse;whiteSpace=wrap;html=1;align=center;" parent="1" vertex="1">
          <mxGeometry x="840" y="450" width="80" height="40" as="geometry" />
        </mxCell>
        <mxCell id="vmQZ8xtDYOCq7PcfICJz-15" style="edgeStyle=orthogonalEdgeStyle;rounded=0;orthogonalLoop=1;jettySize=auto;html=1;entryX=0.5;entryY=1;entryDx=0;entryDy=0;exitX=0;exitY=0.5;exitDx=0;exitDy=0;" parent="1" source="vmQZ8xtDYOCq7PcfICJz-16" target="vmQZ8xtDYOCq7PcfICJz-10" edge="1">
          <mxGeometry relative="1" as="geometry">
            <Array as="points">
              <mxPoint x="830" y="420" />
            </Array>
          </mxGeometry>
        </mxCell>
        <mxCell id="vmQZ8xtDYOCq7PcfICJz-16" value="status&lt;br&gt;name" style="ellipse;whiteSpace=wrap;html=1;align=center;" parent="1" vertex="1">
          <mxGeometry x="840" y="400" width="80" height="40" as="geometry" />
        </mxCell>
        <mxCell id="vmQZ8xtDYOCq7PcfICJz-17" style="edgeStyle=orthogonalEdgeStyle;rounded=0;orthogonalLoop=1;jettySize=auto;html=1;entryX=0.5;entryY=1;entryDx=0;entryDy=0;" parent="1" source="vmQZ8xtDYOCq7PcfICJz-18" target="vmQZ8xtDYOCq7PcfICJz-10" edge="1">
          <mxGeometry relative="1" as="geometry">
            <Array as="points">
              <mxPoint x="830" y="370" />
            </Array>
          </mxGeometry>
        </mxCell>
        <mxCell id="vmQZ8xtDYOCq7PcfICJz-18" value="&lt;u&gt;status_id&lt;/u&gt;" style="ellipse;whiteSpace=wrap;html=1;align=center;" parent="1" vertex="1">
          <mxGeometry x="840" y="350" width="80" height="40" as="geometry" />
        </mxCell>
        <mxCell id="vmQZ8xtDYOCq7PcfICJz-22" value="account_type" style="ellipse;whiteSpace=wrap;html=1;align=center;" parent="1" vertex="1">
          <mxGeometry x="110" y="270" width="80" height="40" as="geometry" />
        </mxCell>
        <mxCell id="vmQZ8xtDYOCq7PcfICJz-37" style="edgeStyle=orthogonalEdgeStyle;rounded=0;orthogonalLoop=1;jettySize=auto;html=1;exitX=0;exitY=0.5;exitDx=0;exitDy=0;entryX=0;entryY=0.5;entryDx=0;entryDy=0;" parent="1" source="vmQZ8xtDYOCq7PcfICJz-28" target="87wVxwsKgg1wfdDSbdAy-146" edge="1">
          <mxGeometry relative="1" as="geometry">
            <mxPoint x="440" y="800" as="targetPoint" />
            <Array as="points">
              <mxPoint x="100" y="790" />
              <mxPoint x="100" y="720" />
            </Array>
          </mxGeometry>
        </mxCell>
        <mxCell id="vmQZ8xtDYOCq7PcfICJz-28" value="password" style="ellipse;whiteSpace=wrap;html=1;align=center;" parent="1" vertex="1">
          <mxGeometry x="110" y="770" width="80" height="40" as="geometry" />
        </mxCell>
        <mxCell id="vmQZ8xtDYOCq7PcfICJz-39" style="edgeStyle=orthogonalEdgeStyle;rounded=0;orthogonalLoop=1;jettySize=auto;html=1;entryX=0;entryY=0.5;entryDx=0;entryDy=0;exitX=0.5;exitY=0;exitDx=0;exitDy=0;" parent="1" source="vmQZ8xtDYOCq7PcfICJz-29" target="87wVxwsKgg1wfdDSbdAy-146" edge="1">
          <mxGeometry relative="1" as="geometry">
            <mxPoint x="460" y="790" as="targetPoint" />
            <Array as="points">
              <mxPoint x="330" y="760" />
              <mxPoint x="100" y="760" />
              <mxPoint x="100" y="720" />
            </Array>
          </mxGeometry>
        </mxCell>
        <mxCell id="vmQZ8xtDYOCq7PcfICJz-29" value="SSN" style="ellipse;whiteSpace=wrap;html=1;align=center;" parent="1" vertex="1">
          <mxGeometry x="290" y="770" width="80" height="40" as="geometry" />
        </mxCell>
        <mxCell id="vmQZ8xtDYOCq7PcfICJz-38" style="edgeStyle=orthogonalEdgeStyle;rounded=0;orthogonalLoop=1;jettySize=auto;html=1;entryX=0;entryY=0.5;entryDx=0;entryDy=0;exitX=1;exitY=0.5;exitDx=0;exitDy=0;" parent="1" source="vmQZ8xtDYOCq7PcfICJz-30" target="87wVxwsKgg1wfdDSbdAy-146" edge="1">
          <mxGeometry relative="1" as="geometry">
            <Array as="points">
              <mxPoint x="100" y="730" />
              <mxPoint x="100" y="720" />
            </Array>
          </mxGeometry>
        </mxCell>
        <mxCell id="vmQZ8xtDYOCq7PcfICJz-30" value="first name" style="ellipse;whiteSpace=wrap;html=1;align=center;" parent="1" vertex="1">
          <mxGeometry x="10" y="710" width="80" height="40" as="geometry" />
        </mxCell>
        <mxCell id="vmQZ8xtDYOCq7PcfICJz-40" style="edgeStyle=orthogonalEdgeStyle;rounded=0;orthogonalLoop=1;jettySize=auto;html=1;entryX=0;entryY=0.5;entryDx=0;entryDy=0;" parent="1" source="vmQZ8xtDYOCq7PcfICJz-31" target="87wVxwsKgg1wfdDSbdAy-146" edge="1">
          <mxGeometry relative="1" as="geometry">
            <mxPoint x="460" y="800" as="targetPoint" />
            <Array as="points">
              <mxPoint x="240" y="760" />
              <mxPoint x="100" y="760" />
              <mxPoint x="100" y="720" />
            </Array>
          </mxGeometry>
        </mxCell>
        <mxCell id="vmQZ8xtDYOCq7PcfICJz-31" value="access level" style="ellipse;whiteSpace=wrap;html=1;align=center;" parent="1" vertex="1">
          <mxGeometry x="200" y="770" width="80" height="40" as="geometry" />
        </mxCell>
        <mxCell id="vmQZ8xtDYOCq7PcfICJz-41" style="edgeStyle=orthogonalEdgeStyle;rounded=0;orthogonalLoop=1;jettySize=auto;html=1;entryX=0;entryY=0.5;entryDx=0;entryDy=0;exitX=0.5;exitY=1;exitDx=0;exitDy=0;" parent="1" source="vmQZ8xtDYOCq7PcfICJz-32" target="87wVxwsKgg1wfdDSbdAy-146" edge="1">
          <mxGeometry relative="1" as="geometry">
            <mxPoint x="460" y="800" as="targetPoint" />
            <Array as="points">
              <mxPoint x="300" y="760" />
              <mxPoint x="100" y="760" />
              <mxPoint x="100" y="720" />
            </Array>
          </mxGeometry>
        </mxCell>
        <mxCell id="vmQZ8xtDYOCq7PcfICJz-32" value="phone&lt;br&gt;&amp;nbsp;number" style="ellipse;whiteSpace=wrap;html=1;align=center;" parent="1" vertex="1">
          <mxGeometry x="260" y="710" width="80" height="40" as="geometry" />
        </mxCell>
        <mxCell id="vmQZ8xtDYOCq7PcfICJz-56" style="edgeStyle=orthogonalEdgeStyle;rounded=0;orthogonalLoop=1;jettySize=auto;html=1;endArrow=none;endFill=0;entryX=0.75;entryY=0;entryDx=0;entryDy=0;exitX=0;exitY=0.5;exitDx=0;exitDy=0;" parent="1" source="vmQZ8xtDYOCq7PcfICJz-46" target="vmQZ8xtDYOCq7PcfICJz-49" edge="1">
          <mxGeometry relative="1" as="geometry">
            <mxPoint x="350" y="440" as="targetPoint" />
            <Array as="points">
              <mxPoint x="215" y="545" />
            </Array>
            <mxPoint x="220" y="510" as="sourcePoint" />
          </mxGeometry>
        </mxCell>
        <mxCell id="vmQZ8xtDYOCq7PcfICJz-46" value="has" style="shape=rhombus;perimeter=rhombusPerimeter;whiteSpace=wrap;html=1;align=center;strokeColor=default;gradientColor=none;double=0;" parent="1" vertex="1">
          <mxGeometry x="240" y="510" width="70" height="70" as="geometry" />
        </mxCell>
        <mxCell id="vmQZ8xtDYOCq7PcfICJz-47" style="edgeStyle=orthogonalEdgeStyle;rounded=0;orthogonalLoop=1;jettySize=auto;html=1;entryX=1;entryY=0.5;entryDx=0;entryDy=0;endArrow=none;endFill=0;exitX=0.75;exitY=1;exitDx=0;exitDy=0;" parent="1" source="87wVxwsKgg1wfdDSbdAy-37" target="vmQZ8xtDYOCq7PcfICJz-46" edge="1">
          <mxGeometry relative="1" as="geometry">
            <mxPoint x="290" y="605" as="targetPoint" />
            <Array as="points">
              <mxPoint x="225" y="500" />
              <mxPoint x="330" y="500" />
              <mxPoint x="330" y="545" />
            </Array>
            <mxPoint x="300" y="360" as="sourcePoint" />
          </mxGeometry>
        </mxCell>
        <mxCell id="vmQZ8xtDYOCq7PcfICJz-49" value="status" style="whiteSpace=wrap;html=1;align=center;" parent="1" vertex="1">
          <mxGeometry x="140" y="590" width="100" height="40" as="geometry" />
        </mxCell>
        <mxCell id="vmQZ8xtDYOCq7PcfICJz-55" style="edgeStyle=orthogonalEdgeStyle;rounded=0;orthogonalLoop=1;jettySize=auto;html=1;entryX=0;entryY=0.5;entryDx=0;entryDy=0;exitX=1;exitY=0.5;exitDx=0;exitDy=0;" parent="1" source="vmQZ8xtDYOCq7PcfICJz-50" target="vmQZ8xtDYOCq7PcfICJz-49" edge="1">
          <mxGeometry relative="1" as="geometry">
            <Array as="points">
              <mxPoint x="100" y="530" />
              <mxPoint x="100" y="610" />
            </Array>
          </mxGeometry>
        </mxCell>
        <mxCell id="vmQZ8xtDYOCq7PcfICJz-50" value="&lt;u&gt;status_id&lt;/u&gt;" style="ellipse;whiteSpace=wrap;html=1;align=center;" parent="1" vertex="1">
          <mxGeometry x="10" y="510" width="80" height="40" as="geometry" />
        </mxCell>
        <mxCell id="vmQZ8xtDYOCq7PcfICJz-54" style="edgeStyle=orthogonalEdgeStyle;rounded=0;orthogonalLoop=1;jettySize=auto;html=1;entryX=0;entryY=0.5;entryDx=0;entryDy=0;exitX=1;exitY=0.5;exitDx=0;exitDy=0;" parent="1" source="vmQZ8xtDYOCq7PcfICJz-51" target="vmQZ8xtDYOCq7PcfICJz-49" edge="1">
          <mxGeometry relative="1" as="geometry">
            <Array as="points">
              <mxPoint x="100" y="580" />
              <mxPoint x="100" y="610" />
            </Array>
          </mxGeometry>
        </mxCell>
        <mxCell id="vmQZ8xtDYOCq7PcfICJz-51" value="status&lt;br&gt;name" style="ellipse;whiteSpace=wrap;html=1;align=center;" parent="1" vertex="1">
          <mxGeometry x="10" y="560" width="80" height="40" as="geometry" />
        </mxCell>
        <mxCell id="vmQZ8xtDYOCq7PcfICJz-53" style="edgeStyle=orthogonalEdgeStyle;rounded=0;orthogonalLoop=1;jettySize=auto;html=1;entryX=0;entryY=0.5;entryDx=0;entryDy=0;exitX=0;exitY=0.5;exitDx=0;exitDy=0;" parent="1" source="vmQZ8xtDYOCq7PcfICJz-52" target="vmQZ8xtDYOCq7PcfICJz-49" edge="1">
          <mxGeometry relative="1" as="geometry">
            <Array as="points">
              <mxPoint x="100" y="540" />
              <mxPoint x="100" y="610" />
            </Array>
          </mxGeometry>
        </mxCell>
        <mxCell id="vmQZ8xtDYOCq7PcfICJz-52" value="status&lt;br&gt;discreption" style="ellipse;whiteSpace=wrap;html=1;align=center;" parent="1" vertex="1">
          <mxGeometry x="110" y="520" width="80" height="40" as="geometry" />
        </mxCell>
        <mxCell id="vmQZ8xtDYOCq7PcfICJz-74" value="notification&amp;nbsp;" style="whiteSpace=wrap;html=1;align=center;" parent="1" vertex="1">
          <mxGeometry x="460" y="130" width="100" height="40" as="geometry" />
        </mxCell>
        <mxCell id="vmQZ8xtDYOCq7PcfICJz-131" style="edgeStyle=orthogonalEdgeStyle;rounded=0;orthogonalLoop=1;jettySize=auto;html=1;entryX=0.5;entryY=0;entryDx=0;entryDy=0;" parent="1" source="vmQZ8xtDYOCq7PcfICJz-75" target="vmQZ8xtDYOCq7PcfICJz-74" edge="1">
          <mxGeometry relative="1" as="geometry">
            <Array as="points">
              <mxPoint x="480" y="80" />
              <mxPoint x="480" y="110" />
              <mxPoint x="510" y="110" />
            </Array>
          </mxGeometry>
        </mxCell>
        <mxCell id="vmQZ8xtDYOCq7PcfICJz-75" value="title" style="ellipse;whiteSpace=wrap;html=1;align=center;" parent="1" vertex="1">
          <mxGeometry x="490" y="60" width="80" height="40" as="geometry" />
        </mxCell>
        <mxCell id="vmQZ8xtDYOCq7PcfICJz-142" style="edgeStyle=orthogonalEdgeStyle;rounded=0;orthogonalLoop=1;jettySize=auto;html=1;entryX=0.5;entryY=0;entryDx=0;entryDy=0;" parent="1" source="vmQZ8xtDYOCq7PcfICJz-76" target="vmQZ8xtDYOCq7PcfICJz-74" edge="1">
          <mxGeometry relative="1" as="geometry">
            <Array as="points">
              <mxPoint x="480" y="30" />
              <mxPoint x="480" y="110" />
              <mxPoint x="510" y="110" />
            </Array>
          </mxGeometry>
        </mxCell>
        <mxCell id="vmQZ8xtDYOCq7PcfICJz-76" value="message" style="ellipse;whiteSpace=wrap;html=1;align=center;" parent="1" vertex="1">
          <mxGeometry x="490" y="10" width="80" height="40" as="geometry" />
        </mxCell>
        <mxCell id="vmQZ8xtDYOCq7PcfICJz-144" style="edgeStyle=orthogonalEdgeStyle;rounded=0;orthogonalLoop=1;jettySize=auto;html=1;entryX=0.5;entryY=0;entryDx=0;entryDy=0;" parent="1" source="vmQZ8xtDYOCq7PcfICJz-77" target="vmQZ8xtDYOCq7PcfICJz-74" edge="1">
          <mxGeometry relative="1" as="geometry">
            <Array as="points">
              <mxPoint x="380" y="30" />
              <mxPoint x="380" y="110" />
              <mxPoint x="510" y="110" />
            </Array>
          </mxGeometry>
        </mxCell>
        <mxCell id="vmQZ8xtDYOCq7PcfICJz-77" value="status" style="ellipse;whiteSpace=wrap;html=1;align=center;" parent="1" vertex="1">
          <mxGeometry x="390" y="10" width="80" height="40" as="geometry" />
        </mxCell>
        <mxCell id="vmQZ8xtDYOCq7PcfICJz-143" style="edgeStyle=orthogonalEdgeStyle;rounded=0;orthogonalLoop=1;jettySize=auto;html=1;entryX=0.5;entryY=0;entryDx=0;entryDy=0;" parent="1" source="vmQZ8xtDYOCq7PcfICJz-78" target="vmQZ8xtDYOCq7PcfICJz-74" edge="1">
          <mxGeometry relative="1" as="geometry">
            <Array as="points">
              <mxPoint x="380" y="80" />
              <mxPoint x="380" y="110" />
              <mxPoint x="510" y="110" />
            </Array>
          </mxGeometry>
        </mxCell>
        <mxCell id="vmQZ8xtDYOCq7PcfICJz-78" value="user_id" style="ellipse;whiteSpace=wrap;html=1;align=center;" parent="1" vertex="1">
          <mxGeometry x="290" y="60" width="80" height="40" as="geometry" />
        </mxCell>
        <mxCell id="vmQZ8xtDYOCq7PcfICJz-129" style="edgeStyle=orthogonalEdgeStyle;rounded=0;orthogonalLoop=1;jettySize=auto;html=1;entryX=0.5;entryY=0;entryDx=0;entryDy=0;" parent="1" source="vmQZ8xtDYOCq7PcfICJz-79" target="vmQZ8xtDYOCq7PcfICJz-74" edge="1">
          <mxGeometry relative="1" as="geometry">
            <mxPoint x="90" y="370" as="targetPoint" />
            <Array as="points">
              <mxPoint x="380" y="80" />
              <mxPoint x="380" y="110" />
              <mxPoint x="510" y="110" />
            </Array>
          </mxGeometry>
        </mxCell>
        <mxCell id="vmQZ8xtDYOCq7PcfICJz-79" value="date time" style="ellipse;whiteSpace=wrap;html=1;align=center;" parent="1" vertex="1">
          <mxGeometry x="390" y="60" width="80" height="40" as="geometry" />
        </mxCell>
        <mxCell id="vmQZ8xtDYOCq7PcfICJz-130" style="edgeStyle=orthogonalEdgeStyle;rounded=0;orthogonalLoop=1;jettySize=auto;html=1;entryX=0.5;entryY=0;entryDx=0;entryDy=0;exitX=1;exitY=0.5;exitDx=0;exitDy=0;" parent="1" source="vmQZ8xtDYOCq7PcfICJz-80" target="vmQZ8xtDYOCq7PcfICJz-74" edge="1">
          <mxGeometry relative="1" as="geometry">
            <Array as="points">
              <mxPoint x="380" y="30" />
              <mxPoint x="380" y="110" />
              <mxPoint x="510" y="110" />
            </Array>
          </mxGeometry>
        </mxCell>
        <mxCell id="vmQZ8xtDYOCq7PcfICJz-80" value="&lt;u&gt;unf_id&lt;/u&gt;" style="ellipse;whiteSpace=wrap;html=1;align=center;" parent="1" vertex="1">
          <mxGeometry x="290" y="10" width="80" height="40" as="geometry" />
        </mxCell>
        <mxCell id="vmQZ8xtDYOCq7PcfICJz-101" style="edgeStyle=orthogonalEdgeStyle;rounded=0;orthogonalLoop=1;jettySize=auto;html=1;entryX=0.75;entryY=1;entryDx=0;entryDy=0;exitX=1;exitY=0.5;exitDx=0;exitDy=0;" parent="1" source="vmQZ8xtDYOCq7PcfICJz-88" target="vmQZ8xtDYOCq7PcfICJz-93" edge="1">
          <mxGeometry relative="1" as="geometry">
            <Array as="points">
              <mxPoint x="375" y="310" />
            </Array>
          </mxGeometry>
        </mxCell>
        <mxCell id="vmQZ8xtDYOCq7PcfICJz-88" value="pay_id" style="ellipse;whiteSpace=wrap;html=1;align=center;fontStyle=4" parent="1" vertex="1">
          <mxGeometry x="260" y="290" width="80" height="40" as="geometry" />
        </mxCell>
        <mxCell id="vmQZ8xtDYOCq7PcfICJz-104" style="edgeStyle=orthogonalEdgeStyle;rounded=0;orthogonalLoop=1;jettySize=auto;html=1;entryX=0.75;entryY=1;entryDx=0;entryDy=0;exitX=1;exitY=0.5;exitDx=0;exitDy=0;" parent="1" source="vmQZ8xtDYOCq7PcfICJz-89" target="vmQZ8xtDYOCq7PcfICJz-93" edge="1">
          <mxGeometry relative="1" as="geometry">
            <Array as="points">
              <mxPoint x="350" y="410" />
              <mxPoint x="350" y="310" />
              <mxPoint x="375" y="310" />
            </Array>
          </mxGeometry>
        </mxCell>
        <mxCell id="vmQZ8xtDYOCq7PcfICJz-89" value="user_id" style="ellipse;whiteSpace=wrap;html=1;align=center;" parent="1" vertex="1">
          <mxGeometry x="260" y="390" width="80" height="40" as="geometry" />
        </mxCell>
        <mxCell id="vmQZ8xtDYOCq7PcfICJz-102" style="edgeStyle=orthogonalEdgeStyle;rounded=0;orthogonalLoop=1;jettySize=auto;html=1;entryX=0.75;entryY=1;entryDx=0;entryDy=0;exitX=1;exitY=0.5;exitDx=0;exitDy=0;" parent="1" source="vmQZ8xtDYOCq7PcfICJz-91" target="vmQZ8xtDYOCq7PcfICJz-93" edge="1">
          <mxGeometry relative="1" as="geometry">
            <Array as="points">
              <mxPoint x="350" y="360" />
              <mxPoint x="350" y="310" />
              <mxPoint x="375" y="310" />
            </Array>
          </mxGeometry>
        </mxCell>
        <mxCell id="vmQZ8xtDYOCq7PcfICJz-91" value="date time" style="ellipse;whiteSpace=wrap;html=1;align=center;" parent="1" vertex="1">
          <mxGeometry x="260" y="340" width="80" height="40" as="geometry" />
        </mxCell>
        <mxCell id="vmQZ8xtDYOCq7PcfICJz-105" style="edgeStyle=orthogonalEdgeStyle;rounded=0;orthogonalLoop=1;jettySize=auto;html=1;exitX=1;exitY=0.5;exitDx=0;exitDy=0;entryX=0.75;entryY=1;entryDx=0;entryDy=0;" parent="1" source="vmQZ8xtDYOCq7PcfICJz-92" target="vmQZ8xtDYOCq7PcfICJz-93" edge="1">
          <mxGeometry relative="1" as="geometry">
            <mxPoint x="585.3260551857798" y="370.02857142857135" as="sourcePoint" />
            <mxPoint x="530" y="300" as="targetPoint" />
            <Array as="points">
              <mxPoint x="350" y="460" />
              <mxPoint x="350" y="310" />
              <mxPoint x="375" y="310" />
            </Array>
          </mxGeometry>
        </mxCell>
        <mxCell id="vmQZ8xtDYOCq7PcfICJz-92" value="pay_amount" style="ellipse;whiteSpace=wrap;html=1;align=center;" parent="1" vertex="1">
          <mxGeometry x="260" y="440" width="80" height="40" as="geometry" />
        </mxCell>
        <mxCell id="vmQZ8xtDYOCq7PcfICJz-93" value="incom payment" style="whiteSpace=wrap;html=1;align=center;" parent="1" vertex="1">
          <mxGeometry x="300" y="240" width="100" height="40" as="geometry" />
        </mxCell>
        <mxCell id="O7f6ndupmdNj3DA_yaev-10" style="edgeStyle=orthogonalEdgeStyle;rounded=0;orthogonalLoop=1;jettySize=auto;html=1;entryX=0;entryY=0.5;entryDx=0;entryDy=0;" parent="1" source="O7f6ndupmdNj3DA_yaev-9" target="87wVxwsKgg1wfdDSbdAy-37" edge="1">
          <mxGeometry relative="1" as="geometry">
            <Array as="points">
              <mxPoint x="100" y="380" />
              <mxPoint x="100" y="340" />
            </Array>
          </mxGeometry>
        </mxCell>
        <mxCell id="O7f6ndupmdNj3DA_yaev-9" value="user_id" style="ellipse;whiteSpace=wrap;html=1;align=center;" parent="1" vertex="1">
          <mxGeometry x="10" y="360" width="80" height="40" as="geometry" />
        </mxCell>
        <mxCell id="O7f6ndupmdNj3DA_yaev-13" style="edgeStyle=orthogonalEdgeStyle;rounded=0;orthogonalLoop=1;jettySize=auto;html=1;endArrow=none;endFill=0;entryX=0.75;entryY=1;entryDx=0;entryDy=0;exitX=0.5;exitY=0;exitDx=0;exitDy=0;" parent="1" source="O7f6ndupmdNj3DA_yaev-12" target="87wVxwsKgg1wfdDSbdAy-3" edge="1">
          <mxGeometry relative="1" as="geometry">
            <mxPoint x="250" y="170" as="targetPoint" />
            <Array as="points">
              <mxPoint x="255" y="190" />
              <mxPoint x="225" y="190" />
            </Array>
          </mxGeometry>
        </mxCell>
        <mxCell id="O7f6ndupmdNj3DA_yaev-12" value="belong to&amp;nbsp;" style="shape=rhombus;perimeter=rhombusPerimeter;whiteSpace=wrap;html=1;align=center;strokeColor=default;gradientColor=none;double=0;" parent="1" vertex="1">
          <mxGeometry x="220" y="210" width="70" height="70" as="geometry" />
        </mxCell>
        <mxCell id="O7f6ndupmdNj3DA_yaev-15" value="1" style="text;html=1;align=center;verticalAlign=middle;resizable=0;points=[];autosize=1;strokeColor=none;fillColor=none;" parent="1" vertex="1">
          <mxGeometry x="220" y="160" width="30" height="30" as="geometry" />
        </mxCell>
        <mxCell id="O7f6ndupmdNj3DA_yaev-16" value="1" style="text;html=1;align=center;verticalAlign=middle;resizable=0;points=[];autosize=1;strokeColor=none;fillColor=none;" parent="1" vertex="1">
          <mxGeometry x="220" y="290" width="30" height="30" as="geometry" />
        </mxCell>
        <mxCell id="O7f6ndupmdNj3DA_yaev-28" style="edgeStyle=orthogonalEdgeStyle;rounded=0;orthogonalLoop=1;jettySize=auto;html=1;entryX=0;entryY=0.5;entryDx=0;entryDy=0;exitX=1;exitY=0.5;exitDx=0;exitDy=0;" parent="1" source="O7f6ndupmdNj3DA_yaev-20" target="O7f6ndupmdNj3DA_yaev-22" edge="1">
          <mxGeometry relative="1" as="geometry">
            <Array as="points">
              <mxPoint x="530" y="560" />
              <mxPoint x="530" y="570" />
            </Array>
          </mxGeometry>
        </mxCell>
        <mxCell id="O7f6ndupmdNj3DA_yaev-20" value="rating_id" style="ellipse;whiteSpace=wrap;html=1;align=center;fontStyle=4" parent="1" vertex="1">
          <mxGeometry x="440" y="540" width="80" height="40" as="geometry" />
        </mxCell>
        <mxCell id="O7f6ndupmdNj3DA_yaev-29" style="edgeStyle=orthogonalEdgeStyle;rounded=0;orthogonalLoop=1;jettySize=auto;html=1;entryX=0;entryY=0.5;entryDx=0;entryDy=0;exitX=1;exitY=0.5;exitDx=0;exitDy=0;" parent="1" source="O7f6ndupmdNj3DA_yaev-21" target="O7f6ndupmdNj3DA_yaev-22" edge="1">
          <mxGeometry relative="1" as="geometry">
            <Array as="points">
              <mxPoint x="530" y="610" />
              <mxPoint x="530" y="570" />
            </Array>
          </mxGeometry>
        </mxCell>
        <mxCell id="O7f6ndupmdNj3DA_yaev-21" value="name" style="ellipse;whiteSpace=wrap;html=1;align=center;" parent="1" vertex="1">
          <mxGeometry x="440" y="590" width="80" height="40" as="geometry" />
        </mxCell>
        <mxCell id="O7f6ndupmdNj3DA_yaev-22" value="Rating_type" style="whiteSpace=wrap;html=1;align=center;" parent="1" vertex="1">
          <mxGeometry x="560" y="550" width="100" height="40" as="geometry" />
        </mxCell>
        <mxCell id="O7f6ndupmdNj3DA_yaev-27" style="edgeStyle=orthogonalEdgeStyle;rounded=0;orthogonalLoop=1;jettySize=auto;html=1;endArrow=none;endFill=0;entryX=0.25;entryY=0;entryDx=0;entryDy=0;" parent="1" source="O7f6ndupmdNj3DA_yaev-25" target="O7f6ndupmdNj3DA_yaev-22" edge="1">
          <mxGeometry relative="1" as="geometry">
            <mxPoint x="570" y="510" as="targetPoint" />
          </mxGeometry>
        </mxCell>
        <mxCell id="O7f6ndupmdNj3DA_yaev-25" value="has" style="shape=rhombus;perimeter=rhombusPerimeter;whiteSpace=wrap;html=1;align=center;strokeColor=default;gradientColor=none;double=0;" parent="1" vertex="1">
          <mxGeometry x="360" y="490" width="70" height="70" as="geometry" />
        </mxCell>
        <mxCell id="O7f6ndupmdNj3DA_yaev-30" value="1" style="text;html=1;align=center;verticalAlign=middle;resizable=0;points=[];autosize=1;strokeColor=none;fillColor=none;" parent="1" vertex="1">
          <mxGeometry x="200" y="360" width="30" height="30" as="geometry" />
        </mxCell>
        <mxCell id="O7f6ndupmdNj3DA_yaev-31" value="M" style="text;html=1;align=center;verticalAlign=middle;resizable=0;points=[];autosize=1;strokeColor=none;fillColor=none;" parent="1" vertex="1">
          <mxGeometry x="580" y="520" width="30" height="30" as="geometry" />
        </mxCell>
        <mxCell id="O7f6ndupmdNj3DA_yaev-42" style="edgeStyle=orthogonalEdgeStyle;rounded=0;orthogonalLoop=1;jettySize=auto;html=1;endArrow=none;endFill=0;entryX=1;entryY=0.5;entryDx=0;entryDy=0;exitX=0;exitY=0.5;exitDx=0;exitDy=0;" parent="1" source="O7f6ndupmdNj3DA_yaev-41" target="O7f6ndupmdNj3DA_yaev-22" edge="1">
          <mxGeometry relative="1" as="geometry">
            <mxPoint x="610" y="490" as="targetPoint" />
            <Array as="points">
              <mxPoint x="690" y="485" />
              <mxPoint x="690" y="570" />
            </Array>
          </mxGeometry>
        </mxCell>
        <mxCell id="O7f6ndupmdNj3DA_yaev-41" value="has" style="shape=rhombus;perimeter=rhombusPerimeter;whiteSpace=wrap;html=1;align=center;strokeColor=default;gradientColor=none;double=0;" parent="1" vertex="1">
          <mxGeometry x="710" y="450" width="70" height="70" as="geometry" />
        </mxCell>
        <mxCell id="O7f6ndupmdNj3DA_yaev-43" value="M" style="text;html=1;align=center;verticalAlign=middle;resizable=0;points=[];autosize=1;strokeColor=none;fillColor=none;" parent="1" vertex="1">
          <mxGeometry x="660" y="540" width="30" height="30" as="geometry" />
        </mxCell>
        <mxCell id="O7f6ndupmdNj3DA_yaev-78" style="edgeStyle=orthogonalEdgeStyle;rounded=0;orthogonalLoop=1;jettySize=auto;html=1;entryX=0.5;entryY=1;entryDx=0;entryDy=0;exitX=1;exitY=0;exitDx=0;exitDy=0;" parent="1" source="O7f6ndupmdNj3DA_yaev-45" target="O7f6ndupmdNj3DA_yaev-41" edge="1">
          <mxGeometry relative="1" as="geometry">
            <Array as="points">
              <mxPoint x="730" y="596" />
              <mxPoint x="730" y="540" />
              <mxPoint x="745" y="540" />
            </Array>
          </mxGeometry>
        </mxCell>
        <mxCell id="O7f6ndupmdNj3DA_yaev-45" value="Value" style="ellipse;whiteSpace=wrap;html=1;align=center;" parent="1" vertex="1">
          <mxGeometry x="650" y="590" width="80" height="40" as="geometry" />
        </mxCell>
        <mxCell id="O7f6ndupmdNj3DA_yaev-69" style="edgeStyle=orthogonalEdgeStyle;rounded=0;orthogonalLoop=1;jettySize=auto;html=1;entryX=0.5;entryY=0;entryDx=0;entryDy=0;endArrow=none;endFill=0;" parent="1" source="O7f6ndupmdNj3DA_yaev-48" target="O7f6ndupmdNj3DA_yaev-68" edge="1">
          <mxGeometry relative="1" as="geometry">
            <Array as="points">
              <mxPoint x="560" y="260" />
              <mxPoint x="560" y="250" />
              <mxPoint x="585" y="250" />
            </Array>
          </mxGeometry>
        </mxCell>
        <mxCell id="O7f6ndupmdNj3DA_yaev-48" value="user_payment" style="whiteSpace=wrap;html=1;align=center;" parent="1" vertex="1">
          <mxGeometry x="430" y="240" width="100" height="40" as="geometry" />
        </mxCell>
        <mxCell id="O7f6ndupmdNj3DA_yaev-58" style="edgeStyle=orthogonalEdgeStyle;rounded=0;orthogonalLoop=1;jettySize=auto;html=1;entryX=0.75;entryY=1;entryDx=0;entryDy=0;" parent="1" source="O7f6ndupmdNj3DA_yaev-49" target="O7f6ndupmdNj3DA_yaev-48" edge="1">
          <mxGeometry relative="1" as="geometry">
            <Array as="points">
              <mxPoint x="490" y="410" />
              <mxPoint x="490" y="310" />
              <mxPoint x="505" y="310" />
            </Array>
          </mxGeometry>
        </mxCell>
        <mxCell id="O7f6ndupmdNj3DA_yaev-49" value="type_id" style="ellipse;whiteSpace=wrap;html=1;align=center;" parent="1" vertex="1">
          <mxGeometry x="400" y="390" width="80" height="40" as="geometry" />
        </mxCell>
        <mxCell id="O7f6ndupmdNj3DA_yaev-59" style="edgeStyle=orthogonalEdgeStyle;rounded=0;orthogonalLoop=1;jettySize=auto;html=1;entryX=0.75;entryY=1;entryDx=0;entryDy=0;" parent="1" source="O7f6ndupmdNj3DA_yaev-50" target="O7f6ndupmdNj3DA_yaev-48" edge="1">
          <mxGeometry relative="1" as="geometry">
            <mxPoint x="500" y="280" as="targetPoint" />
            <Array as="points">
              <mxPoint x="490" y="460" />
              <mxPoint x="490" y="310" />
              <mxPoint x="505" y="310" />
            </Array>
          </mxGeometry>
        </mxCell>
        <mxCell id="O7f6ndupmdNj3DA_yaev-50" value="date time" style="ellipse;whiteSpace=wrap;html=1;align=center;" parent="1" vertex="1">
          <mxGeometry x="400" y="440" width="80" height="40" as="geometry" />
        </mxCell>
        <mxCell id="O7f6ndupmdNj3DA_yaev-56" style="edgeStyle=orthogonalEdgeStyle;rounded=0;orthogonalLoop=1;jettySize=auto;html=1;entryX=0.75;entryY=1;entryDx=0;entryDy=0;" parent="1" source="O7f6ndupmdNj3DA_yaev-51" target="O7f6ndupmdNj3DA_yaev-48" edge="1">
          <mxGeometry relative="1" as="geometry">
            <Array as="points">
              <mxPoint x="505" y="310" />
            </Array>
          </mxGeometry>
        </mxCell>
        <mxCell id="O7f6ndupmdNj3DA_yaev-51" value="pay_id" style="ellipse;whiteSpace=wrap;html=1;align=center;fontStyle=4" parent="1" vertex="1">
          <mxGeometry x="400" y="290" width="80" height="40" as="geometry" />
        </mxCell>
        <mxCell id="O7f6ndupmdNj3DA_yaev-57" style="edgeStyle=orthogonalEdgeStyle;rounded=0;orthogonalLoop=1;jettySize=auto;html=1;entryX=0.75;entryY=1;entryDx=0;entryDy=0;" parent="1" source="O7f6ndupmdNj3DA_yaev-52" target="O7f6ndupmdNj3DA_yaev-48" edge="1">
          <mxGeometry relative="1" as="geometry">
            <Array as="points">
              <mxPoint x="490" y="360" />
              <mxPoint x="490" y="310" />
              <mxPoint x="505" y="310" />
            </Array>
          </mxGeometry>
        </mxCell>
        <mxCell id="O7f6ndupmdNj3DA_yaev-52" value="user_id" style="ellipse;whiteSpace=wrap;html=1;align=center;" parent="1" vertex="1">
          <mxGeometry x="400" y="340" width="80" height="40" as="geometry" />
        </mxCell>
        <mxCell id="O7f6ndupmdNj3DA_yaev-62" style="edgeStyle=orthogonalEdgeStyle;rounded=0;orthogonalLoop=1;jettySize=auto;html=1;entryX=0.5;entryY=1;entryDx=0;entryDy=0;" parent="1" source="O7f6ndupmdNj3DA_yaev-61" target="O7f6ndupmdNj3DA_yaev-25" edge="1">
          <mxGeometry relative="1" as="geometry" />
        </mxCell>
        <mxCell id="O7f6ndupmdNj3DA_yaev-61" value="Value" style="ellipse;whiteSpace=wrap;html=1;align=center;" parent="1" vertex="1">
          <mxGeometry x="350" y="600" width="80" height="40" as="geometry" />
        </mxCell>
        <mxCell id="O7f6ndupmdNj3DA_yaev-73" style="edgeStyle=orthogonalEdgeStyle;rounded=0;orthogonalLoop=1;jettySize=auto;html=1;entryX=0.5;entryY=1;entryDx=0;entryDy=0;" parent="1" source="O7f6ndupmdNj3DA_yaev-63" target="O7f6ndupmdNj3DA_yaev-67" edge="1">
          <mxGeometry relative="1" as="geometry">
            <Array as="points">
              <mxPoint x="590" y="490" />
              <mxPoint x="590" y="400" />
            </Array>
          </mxGeometry>
        </mxCell>
        <mxCell id="O7f6ndupmdNj3DA_yaev-63" value="description" style="ellipse;whiteSpace=wrap;html=1;align=center;" parent="1" vertex="1">
          <mxGeometry x="600" y="470" width="80" height="40" as="geometry" />
        </mxCell>
        <mxCell id="O7f6ndupmdNj3DA_yaev-70" style="edgeStyle=orthogonalEdgeStyle;rounded=0;orthogonalLoop=1;jettySize=auto;html=1;entryX=0.5;entryY=1;entryDx=0;entryDy=0;" parent="1" source="O7f6ndupmdNj3DA_yaev-64" target="O7f6ndupmdNj3DA_yaev-67" edge="1">
          <mxGeometry relative="1" as="geometry">
            <Array as="points">
              <mxPoint x="590" y="440" />
              <mxPoint x="590" y="400" />
            </Array>
          </mxGeometry>
        </mxCell>
        <mxCell id="O7f6ndupmdNj3DA_yaev-64" value="name" style="ellipse;whiteSpace=wrap;html=1;align=center;" parent="1" vertex="1">
          <mxGeometry x="500" y="420" width="80" height="40" as="geometry" />
        </mxCell>
        <mxCell id="O7f6ndupmdNj3DA_yaev-72" style="edgeStyle=orthogonalEdgeStyle;rounded=0;orthogonalLoop=1;jettySize=auto;html=1;entryX=0.5;entryY=1;entryDx=0;entryDy=0;" parent="1" source="O7f6ndupmdNj3DA_yaev-65" target="O7f6ndupmdNj3DA_yaev-67" edge="1">
          <mxGeometry relative="1" as="geometry">
            <Array as="points">
              <mxPoint x="590" y="490" />
              <mxPoint x="590" y="400" />
            </Array>
          </mxGeometry>
        </mxCell>
        <mxCell id="O7f6ndupmdNj3DA_yaev-65" value="type_id" style="ellipse;whiteSpace=wrap;html=1;align=center;fontStyle=4;" parent="1" vertex="1">
          <mxGeometry x="500" y="470" width="80" height="40" as="geometry" />
        </mxCell>
        <mxCell id="O7f6ndupmdNj3DA_yaev-71" style="edgeStyle=orthogonalEdgeStyle;rounded=0;orthogonalLoop=1;jettySize=auto;html=1;entryX=0.5;entryY=1;entryDx=0;entryDy=0;exitX=0;exitY=0.5;exitDx=0;exitDy=0;" parent="1" source="O7f6ndupmdNj3DA_yaev-66" target="O7f6ndupmdNj3DA_yaev-67" edge="1">
          <mxGeometry relative="1" as="geometry">
            <Array as="points">
              <mxPoint x="590" y="440" />
              <mxPoint x="590" y="400" />
            </Array>
          </mxGeometry>
        </mxCell>
        <mxCell id="O7f6ndupmdNj3DA_yaev-66" value="amount" style="ellipse;whiteSpace=wrap;html=1;align=center;" parent="1" vertex="1">
          <mxGeometry x="600" y="420" width="80" height="40" as="geometry" />
        </mxCell>
        <mxCell id="O7f6ndupmdNj3DA_yaev-67" value="payment_type" style="whiteSpace=wrap;html=1;align=center;" parent="1" vertex="1">
          <mxGeometry x="540" y="360" width="100" height="40" as="geometry" />
        </mxCell>
        <mxCell id="O7f6ndupmdNj3DA_yaev-74" style="edgeStyle=orthogonalEdgeStyle;rounded=0;orthogonalLoop=1;jettySize=auto;html=1;entryX=0.5;entryY=0;entryDx=0;entryDy=0;endArrow=none;endFill=0;" parent="1" source="O7f6ndupmdNj3DA_yaev-68" target="O7f6ndupmdNj3DA_yaev-67" edge="1">
          <mxGeometry relative="1" as="geometry" />
        </mxCell>
        <mxCell id="O7f6ndupmdNj3DA_yaev-68" value="has" style="shape=rhombus;perimeter=rhombusPerimeter;whiteSpace=wrap;html=1;align=center;strokeColor=default;gradientColor=none;double=0;" parent="1" vertex="1">
          <mxGeometry x="550" y="270" width="70" height="70" as="geometry" />
        </mxCell>
        <mxCell id="O7f6ndupmdNj3DA_yaev-80" value="1" style="text;html=1;align=center;verticalAlign=middle;resizable=0;points=[];autosize=1;strokeColor=none;fillColor=none;" parent="1" vertex="1">
          <mxGeometry x="720" y="180" width="30" height="30" as="geometry" />
        </mxCell>
        <mxCell id="O7f6ndupmdNj3DA_yaev-81" value="M" style="text;html=1;align=center;verticalAlign=middle;resizable=0;points=[];autosize=1;strokeColor=none;fillColor=none;" parent="1" vertex="1">
          <mxGeometry x="320" y="210" width="30" height="30" as="geometry" />
        </mxCell>
        <mxCell id="O7f6ndupmdNj3DA_yaev-82" value="M" style="text;html=1;align=center;verticalAlign=middle;resizable=0;points=[];autosize=1;strokeColor=none;fillColor=none;" parent="1" vertex="1">
          <mxGeometry x="450" y="210" width="30" height="30" as="geometry" />
        </mxCell>
        <mxCell id="O7f6ndupmdNj3DA_yaev-92" value="1" style="text;html=1;align=center;verticalAlign=middle;resizable=0;points=[];autosize=1;strokeColor=none;fillColor=none;" parent="1" vertex="1">
          <mxGeometry x="780" y="580" width="30" height="30" as="geometry" />
        </mxCell>
        <mxCell id="O7f6ndupmdNj3DA_yaev-93" value="1" style="text;html=1;align=center;verticalAlign=middle;resizable=0;points=[];autosize=1;strokeColor=none;fillColor=none;" parent="1" vertex="1">
          <mxGeometry x="650" y="660" width="30" height="30" as="geometry" />
        </mxCell>
        <mxCell id="O7f6ndupmdNj3DA_yaev-94" value="M" style="text;html=1;align=center;verticalAlign=middle;resizable=0;points=[];autosize=1;strokeColor=none;fillColor=none;" parent="1" vertex="1">
          <mxGeometry x="430" y="120" width="30" height="30" as="geometry" />
        </mxCell>
        <mxCell id="O7f6ndupmdNj3DA_yaev-95" value="1" style="text;html=1;align=center;verticalAlign=middle;resizable=0;points=[];autosize=1;strokeColor=none;fillColor=none;" parent="1" vertex="1">
          <mxGeometry x="800" y="270" width="30" height="30" as="geometry" />
        </mxCell>
        <mxCell id="O7f6ndupmdNj3DA_yaev-97" value="1" style="text;html=1;align=center;verticalAlign=middle;resizable=0;points=[];autosize=1;strokeColor=none;fillColor=none;" parent="1" vertex="1">
          <mxGeometry x="760" y="370" width="30" height="30" as="geometry" />
        </mxCell>
        <mxCell id="O7f6ndupmdNj3DA_yaev-99" value="1" style="text;html=1;align=center;verticalAlign=middle;resizable=0;points=[];autosize=1;strokeColor=none;fillColor=none;" parent="1" vertex="1">
          <mxGeometry x="200" y="670" width="30" height="30" as="geometry" />
        </mxCell>
        <mxCell id="O7f6ndupmdNj3DA_yaev-100" value="1" style="text;html=1;align=center;verticalAlign=middle;resizable=0;points=[];autosize=1;strokeColor=none;fillColor=none;" parent="1" vertex="1">
          <mxGeometry x="180" y="560" width="30" height="30" as="geometry" />
        </mxCell>
        <mxCell id="O7f6ndupmdNj3DA_yaev-101" value="M" style="text;html=1;align=center;verticalAlign=middle;resizable=0;points=[];autosize=1;strokeColor=none;fillColor=none;" parent="1" vertex="1">
          <mxGeometry x="430" y="680" width="30" height="30" as="geometry" />
        </mxCell>
        <mxCell id="O7f6ndupmdNj3DA_yaev-102" value="1" style="text;html=1;align=center;verticalAlign=middle;resizable=0;points=[];autosize=1;strokeColor=none;fillColor=none;" parent="1" vertex="1">
          <mxGeometry x="530" y="230" width="30" height="30" as="geometry" />
        </mxCell>
        <mxCell id="O7f6ndupmdNj3DA_yaev-103" value="1" style="text;html=1;align=center;verticalAlign=middle;resizable=0;points=[];autosize=1;strokeColor=none;fillColor=none;" parent="1" vertex="1">
          <mxGeometry x="580" y="330" width="30" height="30" as="geometry" />
        </mxCell>
      </root>
    </mxGraphModel>
  </diagram>
</mxfile>
